<svg xmlns="http://www.w3.org/2000/svg" id="_레이어_1" data-name="레이어_1" version="1.1" viewBox="0 0 48 48"><defs><clipPath id="clippath"><path d="M5.1 4.3h37.8v39.4H5.1z" class="st31"/></clipPath><clipPath id="clippath-1"><path d="M4.7 4.4h38.6v39.1H4.7z" class="st31"/></clipPath><clipPath id="clippath-2"><path d="M4.2 4.2h39.6v39.6H4.2z" class="st31"/></clipPath><clipPath id="clippath-3"><path d="m6.752 39.748 9.939-37.092 26.853 7.196-9.939 37.091z" class="st31"/></clipPath><clipPath id="clippath-4"><path d="M25.7 5.1C21 3.9 16.2 6.6 15 11.3s1.5 9.5 6.2 10.7 9.5-1.5 10.7-6.2-1.5-9.5-6.2-10.7" class="st31"/></clipPath><clipPath id="clippath-5"><path d="M25.7 5.1C21 3.9 16.2 6.6 15 11.3s1.5 9.5 6.2 10.7 9.5-1.5 10.7-6.2-1.5-9.5-6.2-10.7" class="st31"/></clipPath><clipPath id="clippath-6"><path d="M3.4 4.3h38v39.3h-38z" class="st31"/></clipPath><clipPath id="clippath-7"><path d="M22.4 10.2 11 41.3c-.3.9.1 1.9 1 2.2.2 0 .4.1.6.1h22.8c1 0 1.7-.8 1.7-1.7s0-.4-.1-.6L25.6 10.2c-.3-.9-1.3-1.4-2.2-1-.5.2-.9.6-1 1" class="st31"/></clipPath><clipPath id="clippath-8"><path d="M22.4 10.2 11 41.3c-.3.9.1 1.9 1 2.2.2 0 .4.1.6.1h22.8c1 0 1.7-.8 1.7-1.7 0-.2 0-.4-.1-.6L25.6 10.2c-.3-.9-1.3-1.4-2.2-1-.5.2-.9.6-1 1" class="st31"/></clipPath><clipPath id="clippath-9"><path d="M4.4 15.7h39.3v16.6H4.4z" class="st31"/></clipPath><clipPath id="clippath-10"><path d="M4.3 15.2h39.5v17.5H4.3z" class="st31"/></clipPath><clipPath id="clippath-11"><path d="M4.4 8.1h39.1v28.6H4.4z" class="st31"/></clipPath><clipPath id="clippath-12"><path d="M5.6 4.7h36.8v38.6H5.6z" class="st31"/></clipPath><clipPath id="clippath-13"><path d="M4.4 5.2h39.3v37.5H4.4z" class="st31"/></clipPath><clipPath id="clippath-14"><path d="M1.069 32.836 11.272-.54l35.001 10.7-10.204 33.376z" class="st31"/></clipPath><clipPath id="clippath-15"><path d="M5 8.8h38v30.4H5z" class="st31"/></clipPath><clipPath id="clippath-16"><path d="M5 5.9h38v36.2H5z" class="st31"/></clipPath><linearGradient id="_무제_그라디언트" x1="-6141.3" x2="-6141.3" y1="1473.1" y2="1473.4" data-name="무제 그라디언트" gradientTransform="rotate(90 -161982.1 264246.4)scale(69.4)" gradientUnits="userSpaceOnUse"><stop offset="0" stop-color="#1ecad3"/><stop offset=".7" stop-color="#5f9ee6"/><stop offset="1" stop-color="#7d89ef"/></linearGradient><style>.st2{fill:#8b9ffe}.st5,.st6{fill:#434343}.st7{fill:#ffda44}.st10,.st11,.st13,.st18,.st6,.st9{display:none}.st22,.st9{fill:#1ecad3}.st24{fill:#7f6154}.st27{fill:#bababa}.st10,.st28{fill:#fff}.st29{fill:#25a5a5}.st11,.st30,.st31{fill:none}.st11,.st30{stroke-linecap:round;stroke-linejoin:round}.st30{stroke:#1ecad3}.st11{stroke:#434343;stroke-width:3px}.st35{fill:#64c37d}.st36{fill:#9178e0}.st37{fill:#f7aed1}.st41{fill:#fff800}.st44{fill:#00d7df}.st45{fill:#ea348b}.st13,.st47{fill:#d2d2d2}.st48{fill:#ffe600}.st50{fill:#91dc5a}.st52{fill:#232323}.st53{fill:#ff9811}.st54{fill:#7c84e8}.st55{fill:#616cbc}.st58{fill:#73bcbc}.st59{fill:#bf7822}.st60{fill:#d8cf25}.st61{fill:#ccc}.st62{fill:#ef2b2a}.st63{fill:#599e69}.st64{fill:#99eff2}.st65{fill:#979797}.st68{fill:#dadada}.st69{fill:#933ec5}.st73{fill:#707070}</style></defs><g id="ConTents"><g id="_좋아요"><path d="m24.1 40.7-2.3-2C12.2 30 5.9 24.3 5.9 17.4s4.2-9.7 9.7-9.7 6 1.4 8 3.7l.5.6.5-.6c2-2.3 5-3.7 8-3.7 5.4 0 9.7 4.2 9.7 9.7S36 29.9 26.4 38.6l-2.2 2.1Z" class="st28"/><path d="M24.1 42.2c-.4 0-.7-.1-1-.4l-2.3-2c-9.9-9-16.4-14.9-16.4-22.4S9.3 6.2 15.6 6.2s6.3 1.3 8.5 3.6c2.2-2.3 5.4-3.6 8.5-3.6 6.3 0 11.2 4.9 11.2 11.2s-6.5 13.4-16.3 22.3l-2.3 2.1c-.3.3-.6.4-1 .4Zm-8.5-33c-4.6 0-8.2 3.6-8.2 8.2s6.1 11.7 15.4 20.1l1.3 1.2 1.3-1.2c9.2-8.4 15.4-14 15.4-20.1s-3.6-8.2-8.2-8.2-5.1 1.2-6.8 3.2l-.5.6c-.6.7-1.7.7-2.3 0l-.5-.6c-1.7-2-4.2-3.2-6.8-3.2Z" class="st47"/></g></g></svg>