<svg xmlns="http://www.w3.org/2000/svg" viewBox="0 0 48 48"><defs><clipPath id="clippath"><path d="M5.11 4.31h37.78V43.7H5.11z" class="st30"/></clipPath><clipPath id="clippath-1"><path d="M4.68 4.44h38.64v39.12H4.68z" class="st30"/></clipPath><clipPath id="clippath-2"><path d="M4.22 4.22h39.57v39.57H4.22z" class="st30"/></clipPath><clipPath id="clippath-3"><path d="M6.649 39.828 16.6 2.709l26.88 7.208-9.952 37.118z" class="st30"/></clipPath><clipPath id="clippath-4"><path d="M25.66 5.14a8.744 8.744 0 1 0-4.529 16.892A8.744 8.744 0 0 0 25.66 5.14" class="st30"/></clipPath><clipPath id="clippath-5"><path d="M25.66 5.14a8.744 8.744 0 1 0-4.529 16.892A8.744 8.744 0 0 0 25.66 5.14" class="st30"/></clipPath><clipPath id="clippath-6"><path d="M3.36 4.33h38.02v39.33H3.36z" class="st30"/></clipPath><clipPath id="clippath-7"><path d="m22.35 10.23-11.4 31.11c-.33.9.13 1.89 1.03 2.22.19.07.4.11.6.11h22.8c.96 0 1.73-.78 1.73-1.73 0-.2-.04-.4-.11-.6L25.6 10.23c-.33-.9-1.32-1.36-2.22-1.03-.48.18-.85.55-1.03 1.03" class="st30"/></clipPath><clipPath id="clippath-8"><path id="_패스_3262" d="M22.37 10.23 10.98 41.34c-.33.9.13 1.89 1.03 2.22.19.07.39.11.6.11H35.4c.96 0 1.73-.77 1.74-1.73 0-.2-.04-.41-.11-.6l-11.4-31.11c-.33-.9-1.32-1.36-2.22-1.03-.48.18-.85.55-1.03 1.03" class="st30" data-name="패스_326"/></clipPath><clipPath id="clippath-9"><path d="M4.36 15.7h39.27v16.6H4.36z" class="st30"/></clipPath><clipPath id="clippath-10"><path d="M4.27 15.25h39.47v17.5H4.27z" class="st30"/></clipPath><clipPath id="clippath-11"><path d="M4.42 8.08h39.15v28.58H4.42z" class="st30"/></clipPath><clipPath id="clippath-12"><path d="M5.6 4.68h36.8v38.64H5.6z" class="st30"/></clipPath><clipPath id="clippath-13"><path d="M4.37 5.23h39.26v37.54H4.37z" class="st30"/></clipPath><clipPath id="clippath-14"><path d="M.99 32.87 11.19-.474l35 10.707-10.201 33.344z" class="st30"/></clipPath><clipPath id="clippath-15"><path d="M5 8.82h38v30.37H5z" class="st30"/></clipPath><clipPath id="clippath-16"><path d="M5 5.9h38v36.2H5z" class="st30"/></clipPath><linearGradient id="_무제_그라디언트_2" x1="-8.19" x2="-8.22" y1="63.33" y2="63.03" data-name="무제 그라디언트 2" gradientTransform="matrix(0 69.4 69.4 0 -4365.11 593)" gradientUnits="userSpaceOnUse"><stop offset="0" stop-color="#1ecad3"/><stop offset=".68" stop-color="#5f9ee6"/><stop offset="1" stop-color="#7d89ef"/></linearGradient><style>.st1{fill:#8b9ffe}.st4,.st5{fill:#434343}.st6{fill:#ffda44}.st10,.st12,.st17,.st18,.st5,.st8,.st9{display:none}.st21,.st8{fill:#1ecad3}.st23{fill:#7f6154}.st26{fill:#bababa}.st27,.st9{fill:#fff}.st28{fill:#25a5a5}.st10,.st29,.st30{fill:none}.st10,.st29{stroke-linecap:round;stroke-linejoin:round}.st29{stroke:#1ecad3}.st10{stroke:#434343;stroke-width:3px}.st34{fill:#64c37d}.st35{fill:#9178e0}.st36{fill:#f7aed1}.st40{fill:#fff800}.st43{fill:#00d7df}.st44{fill:#ea348b}.st12,.st46{fill:#d2d2d2}.st47{fill:#ffe600}.st49{fill:#91dc5a}.st51{fill:#232323}.st52{fill:#ff9811}.st53{fill:#7c84e8}.st54{fill:#616cbc}.st57{fill:#73bcbc}.st58{fill:#bf7822}.st59{fill:#d8cf25}.st60{fill:#ccc}.st61{fill:#ef2b2a}.st62{fill:#599e69}.st63{fill:#99eff2}.st18,.st64{fill:#979797}.st67{fill:#dadada}.st68{fill:#933ec5}.st72{fill:#707070}</style></defs><g id="ConTents"><g id="_게시글_-_삭제" data-name="게시글_-_삭제"><rect width="36.89" height="30.99" x="5.56" y="8.51" class="st27" rx="3" ry="3"/><path d="M39.45 40.99H8.55c-2.48 0-4.5-2.02-4.5-4.5V11.5c0-2.48 2.02-4.5 4.5-4.5h30.9c2.48 0 4.5 2.02 4.5 4.5v24.99c0 2.48-2.02 4.5-4.5 4.5M8.55 10.01c-.83 0-1.5.67-1.5 1.5V36.5c0 .83.67 1.5 1.5 1.5h30.9c.83 0 1.5-.67 1.5-1.5v-25c0-.83-.67-1.5-1.5-1.5H8.55Z" class="st64"/><rect width="18.95" height="3" x="14.41" y="22.62" class="st64" rx="1.5" ry="1.5" transform="rotate(135 23.88 24.12)"/><rect width="18.95" height="3" x="14.65" y="22.38" class="st64" rx="1.5" ry="1.5" transform="rotate(-135 24.12 23.88)"/></g></g></svg>