<svg xmlns="http://www.w3.org/2000/svg" xmlns:xlink="http://www.w3.org/1999/xlink" viewBox="0 0 48 48"><defs><linearGradient id="_무제_그라디언트_2" x1="-8.19" x2="-8.22" y1="63.33" y2="63.03" data-name="무제 그라디언트 2" gradientTransform="matrix(0 69.4 69.4 0 -4365.11 593)" gradientUnits="userSpaceOnUse"><stop offset="0" stop-color="#1ecad3"/><stop offset=".68" stop-color="#5f9ee6"/><stop offset="1" stop-color="#7d89ef"/></linearGradient><linearGradient id="linear-gradient" x1="22.76" x2="25.04" y1="6.35" y2="6.35" gradientUnits="userSpaceOnUse"><stop offset="0" stop-color="#ffe400"/><stop offset=".36" stop-color="#ffde30"/><stop offset=".81" stop-color="#fac12c"/><stop offset="1" stop-color="#eca63a"/></linearGradient><linearGradient id="White_Black" x1="23.85" x2="23.85" y1="4.61" y2="8.2" data-name="White, Black" gradientUnits="userSpaceOnUse"><stop offset="0" stop-color="#fff"/><stop offset="1" stop-color="#232020"/></linearGradient><linearGradient xlink:href="#linear-gradient" id="linear-gradient1" x1="-681.3" x2="-679.02" y1="-647.82" y2="-647.82" gradientTransform="rotate(41.44 -1191.582 623.121)"/><linearGradient xlink:href="#White_Black" id="White_Black1" x1="-680.2" x2="-680.2" y1="-649.56" y2="-645.97" data-name="White, Black" gradientTransform="rotate(41.44 -1191.582 623.121)"/><linearGradient xlink:href="#linear-gradient" id="linear-gradient2" x1="-2499.98" x2="-2497.7" y1="957.63" y2="957.63" gradientTransform="scale(-1 1)rotate(41.44 -2.607 3766.333)"/><linearGradient xlink:href="#White_Black" id="White_Black2" x1="-2498.89" x2="-2498.89" y1="955.89" y2="959.48" data-name="White, Black" gradientTransform="scale(-1 1)rotate(41.44 -2.607 3766.333)"/><linearGradient id="linear-gradient3" x1="17.88" x2="30.41" y1="35.96" y2="35.96" gradientUnits="userSpaceOnUse"><stop offset=".01" stop-color="#c3c5d2"/><stop offset=".12" stop-color="#fff"/><stop offset=".3" stop-color="#c1c3d1"/><stop offset=".48" stop-color="#b3a1b3"/><stop offset=".95" stop-color="#7e96b0"/></linearGradient><linearGradient xlink:href="#linear-gradient3" id="linear-gradient4" x1="18.41" x2="29.96" y1="40.63" y2="40.63"/><linearGradient xlink:href="#linear-gradient3" id="linear-gradient5" x1="17.87" x2="30.4" y1="38.3" y2="38.3"/><linearGradient id="_무제_그라디언트_8" x1="-404.61" x2="-423.53" y1="58.87" y2="39.95" data-name="무제 그라디언트 8" gradientTransform="matrix(1.36 0 0 -1.36 574.44 86.73)" gradientUnits="userSpaceOnUse"><stop offset="0" stop-color="#00a0ff"/><stop offset="0" stop-color="#00a1ff"/><stop offset=".26" stop-color="#00beff"/><stop offset=".51" stop-color="#00d2ff"/><stop offset=".76" stop-color="#00dfff"/><stop offset="1" stop-color="#00e3ff"/></linearGradient><linearGradient id="_무제_그라디언트_7" x1="-391.05" x2="-418.32" y1="46.15" y2="46.15" data-name="무제 그라디언트 7" gradientTransform="matrix(1.36 0 0 -1.36 574.44 86.73)" gradientUnits="userSpaceOnUse"><stop offset="0" stop-color="#ffe000"/><stop offset=".41" stop-color="#ffbd00"/><stop offset=".78" stop-color="orange"/><stop offset="1" stop-color="#ff9c00"/></linearGradient><linearGradient id="_무제_그라디언트_6" x1="-401.2" x2="-426.85" y1="43.55" y2="17.9" data-name="무제 그라디언트 6" gradientTransform="matrix(1.36 0 0 -1.36 574.44 86.73)" gradientUnits="userSpaceOnUse"><stop offset="0" stop-color="#ff3a44"/><stop offset="1" stop-color="#c31162"/></linearGradient><linearGradient id="_무제_그라디언트_5" x1="-420.96" x2="-409.5" y1="68.48" y2="57.03" data-name="무제 그라디언트 5" gradientTransform="matrix(1.36 0 0 -1.36 574.44 86.73)" gradientUnits="userSpaceOnUse"><stop offset="0" stop-color="#32a071"/><stop offset=".07" stop-color="#2da771"/><stop offset=".48" stop-color="#15cf74"/><stop offset=".8" stop-color="#06e775"/><stop offset="1" stop-color="#00f076"/></linearGradient><linearGradient id="_무제_그라디언트_11" x1="11.41" x2="11.41" y1="-473.13" y2="-473.11" data-name="무제 그라디언트 11" gradientTransform="translate(-18992.22 788557.8)scale(1666.67)" gradientUnits="userSpaceOnUse"><stop offset="0" stop-color="#19e6ff"/><stop offset="1" stop-color="#1e51ee"/></linearGradient><linearGradient id="_무제_그라디언트_32" x1="4.48" x2="43.52" y1="24" y2="24" data-name="무제 그라디언트 32" gradientUnits="userSpaceOnUse"><stop offset="0" stop-color="#8b9ffe"/><stop offset="1" stop-color="#1ecad3"/></linearGradient><linearGradient xlink:href="#_무제_그라디언트_32" id="_무제_그라디언트_321" x1="4.23" x2="43.77" y1="24.69" y2="24.69" data-name="무제 그라디언트 32"/><linearGradient xlink:href="#_무제_그라디언트_32" id="_무제_그라디언트_322" x1="19.35" x2="30.62" y1="27.34" y2="27.34" data-name="무제 그라디언트 32"/><linearGradient xlink:href="#_무제_그라디언트_32" id="_무제_그라디언트_323" x1="4.45" x2="43.55" y1="24" y2="24" data-name="무제 그라디언트 32"/><linearGradient xlink:href="#_무제_그라디언트_32" id="_무제_그라디언트_324" x1="4" x2="44" data-name="무제 그라디언트 32"/><linearGradient id="_무제_그라디언트_56" x1="6.54" x2="41.46" y1="24" y2="24" data-name="무제 그라디언트 56" gradientUnits="userSpaceOnUse"><stop offset="0" stop-color="#1ecad3"/><stop offset="1" stop-color="#8b9ffe"/></linearGradient><linearGradient xlink:href="#_무제_그라디언트_56" id="_무제_그라디언트_561" x1="18.56" x2="31.75" y1="27.11" y2="27.11" data-name="무제 그라디언트 56"/><linearGradient id="_무제_그라디언트_55" x1="7.26" x2="42.04" y1="26.22" y2="26.22" data-name="무제 그라디언트 55" gradientUnits="userSpaceOnUse"><stop offset="0" stop-color="#1ecad3"/><stop offset="1" stop-color="#8b9ffe"/></linearGradient><linearGradient xlink:href="#_무제_그라디언트_55" id="_무제_그라디언트_551" x1="6.66" x2="18.9" y1="10.17" y2="10.17" data-name="무제 그라디언트 55"/><linearGradient xlink:href="#_무제_그라디언트_55" id="_무제_그라디언트_552" x1="31.72" x2="43.96" y1="10.17" y2="10.17" data-name="무제 그라디언트 55"/><linearGradient xlink:href="#_무제_그라디언트_55" id="_무제_그라디언트_553" x1="25.8" x2="42.19" y1="31.87" y2="31.87" data-name="무제 그라디언트 55"/><linearGradient xlink:href="#_무제_그라디언트_55" id="_무제_그라디언트_554" x1="25.8" x2="42.19" y1="18.79" y2="18.79" data-name="무제 그라디언트 55"/><linearGradient xlink:href="#_무제_그라디언트_55" id="_무제_그라디언트_555" x1="42.21" x2="42.22" y1="25.34" y2="25.34" data-name="무제 그라디언트 55"/><linearGradient xlink:href="#_무제_그라디언트_55" id="_무제_그라디언트_556" x1="24.75" x2="36.34" y1="35.33" y2="35.33" data-name="무제 그라디언트 55"/><linearGradient xlink:href="#_무제_그라디언트_55" id="_무제_그라디언트_557" x1="11.67" x2="23.25" y1="15.34" y2="15.34" data-name="무제 그라디언트 55"/><linearGradient xlink:href="#_무제_그라디언트_55" id="_무제_그라디언트_558" x1="11.66" x2="23.25" y1="35.33" y2="35.33" data-name="무제 그라디언트 55"/><linearGradient xlink:href="#_무제_그라디언트_55" id="_무제_그라디언트_559" x1="24.75" x2="36.33" y1="15.34" y2="15.34" data-name="무제 그라디언트 55"/><linearGradient xlink:href="#_무제_그라디언트_55" id="_무제_그라디언트_5510" x1="36.84" x2="36.93" y1="12.46" y2="12.46" data-name="무제 그라디언트 55"/><linearGradient xlink:href="#_무제_그라디언트_55" id="_무제_그라디언트_5511" x1="10.86" x2="11.39" y1="38.22" y2="38.22" data-name="무제 그라디언트 55"/><linearGradient xlink:href="#_무제_그라디언트_55" id="_무제_그라디언트_5512" x1="11.07" x2="11.16" y1="12.46" y2="12.46" data-name="무제 그라디언트 55"/><linearGradient xlink:href="#_무제_그라디언트_55" id="_무제_그라디언트_5513" x1="36.61" x2="37.14" y1="38.22" y2="38.22" data-name="무제 그라디언트 55"/><linearGradient xlink:href="#_무제_그라디언트_55" id="_무제_그라디언트_5514" x1="5.81" x2="22.2" y1="31.87" y2="31.87" data-name="무제 그라디언트 55"/><linearGradient xlink:href="#_무제_그라디언트_55" id="_무제_그라디언트_5515" x1="5.78" x2="5.79" y1="25.34" y2="25.34" data-name="무제 그라디언트 55"/><linearGradient xlink:href="#_무제_그라디언트_55" id="_무제_그라디언트_5516" x1="5.81" x2="22.2" y1="18.79" y2="18.79" data-name="무제 그라디언트 55"/><linearGradient xlink:href="#_무제_그라디언트_55" id="_무제_그라디언트_5517" x1="20.32" x2="27.68" y1="25.34" y2="25.34" data-name="무제 그라디언트 55"/><linearGradient xlink:href="#_무제_그라디언트_55" id="_무제_그라디언트_5518" x1="29.61" x2="18.39" y1="9.2" y2="9.2" data-name="무제 그라디언트 55"/><linearGradient xlink:href="#_무제_그라디언트_56" id="_무제_그라디언트_562" x1="5.74" x2="42.26" data-name="무제 그라디언트 56"/><linearGradient xlink:href="#_무제_그라디언트_32" id="_무제_그라디언트_325" x1="4" x2="44" data-name="무제 그라디언트 32"/><linearGradient id="_무제_그라디언트_58" x1="4.06" x2="43.94" y1="24" y2="24" data-name="무제 그라디언트 58" gradientUnits="userSpaceOnUse"><stop offset="0" stop-color="#8b9ffe"/><stop offset="1" stop-color="#1ecad3"/></linearGradient><linearGradient xlink:href="#_무제_그라디언트_58" id="_무제_그라디언트_581" x1="19.31" x2="30.67" y1="23.85" y2="23.85" data-name="무제 그라디언트 58"/><linearGradient xlink:href="#_무제_그라디언트_32" id="_무제_그라디언트_326" x1="4" x2="44" data-name="무제 그라디언트 32"/><linearGradient xlink:href="#_무제_그라디언트_32" id="_무제_그라디언트_327" x1="22.66" x2="38.46" y1="29.51" y2="29.51" data-name="무제 그라디언트 32"/><linearGradient xlink:href="#_무제_그라디언트_32" id="_무제_그라디언트_328" x1="4" x2="44" data-name="무제 그라디언트 32"/><linearGradient xlink:href="#_무제_그라디언트_32" id="_무제_그라디언트_329" x1="4.05" x2="43.95" data-name="무제 그라디언트 32"/><linearGradient id="_무제_그라디언트_9" x1="3.86" x2="44.14" y1="24" y2="24" data-name="무제 그라디언트 9" gradientUnits="userSpaceOnUse"><stop offset="0" stop-color="#8b9ffe"/><stop offset="1" stop-color="#1ecad3"/></linearGradient><linearGradient xlink:href="#_무제_그라디언트_9" id="_무제_그라디언트_91" x1="3.99" x2="40.41" y1="25.6" y2="25.6" data-name="무제 그라디언트 9"/><linearGradient xlink:href="#_무제_그라디언트_58" id="_무제_그라디언트_582" x1="28.2" x2="37.59" y1="31.68" y2="31.68" data-name="무제 그라디언트 58"/><linearGradient xlink:href="#_무제_그라디언트_55" id="_무제_그라디언트_5519" x1="4" x2="44" y1="24" y2="24" data-name="무제 그라디언트 55"/><linearGradient xlink:href="#_무제_그라디언트_32" id="_무제_그라디언트_3210" x1="4.05" x2="43.95" data-name="무제 그라디언트 32"/><linearGradient xlink:href="#_무제_그라디언트_55" id="_무제_그라디언트_5520" x1="18.14" x2="43.68" y1="29.95" y2="29.95" data-name="무제 그라디언트 55"/><linearGradient id="_무제_그라디언트_3" x1="9.22" x2="38.78" y1="24.97" y2="24.97" data-name="무제 그라디언트 3" gradientUnits="userSpaceOnUse"><stop offset="0" stop-color="#1ecad3"/><stop offset="1" stop-color="#8b9ffe"/></linearGradient><linearGradient xlink:href="#_무제_그라디언트_3" id="_무제_그라디언트_31" x1="9.22" x2="38.78" y1="13.15" y2="13.15" data-name="무제 그라디언트 3"/><linearGradient xlink:href="#_무제_그라디언트_3" id="_무제_그라디언트_33" x1="16.56" x2="31.44" y1="7.2" y2="7.2" data-name="무제 그라디언트 3"/><linearGradient xlink:href="#_무제_그라디언트_3" id="_무제_그라디언트_34" x1="11.55" x2="36.45" y1="28.08" y2="28.08" data-name="무제 그라디언트 3"/><linearGradient xlink:href="#_무제_그라디언트_3" id="_무제_그라디언트_35" x1="20.54" x2="42.42" y1="19.29" y2="19.29" data-name="무제 그라디언트 3"/><linearGradient xlink:href="#_무제_그라디언트_3" id="_무제_그라디언트_36" x1="10.56" x2="30.67" y1="24" y2="24" data-name="무제 그라디언트 3"/><linearGradient xlink:href="#_무제_그라디언트_3" id="_무제_그라디언트_37" x1="4" x2="37.24" y1="24" y2="24" data-name="무제 그라디언트 3"/><linearGradient xlink:href="#_무제_그라디언트_3" id="_무제_그라디언트_38" x1="37.06" x2="44" y1="17.25" y2="17.25" data-name="무제 그라디언트 3"/><linearGradient xlink:href="#_무제_그라디언트_3" id="_무제_그라디언트_39" x1="36.6" x2="42.27" y1="14.41" y2="14.41" data-name="무제 그라디언트 3"/><linearGradient xlink:href="#_무제_그라디언트_3" id="_무제_그라디언트_310" x1="17.5" x2="24.63" y1="24" y2="24" data-name="무제 그라디언트 3"/><linearGradient id="_무제_그라디언트_10" x1="4" x2="44" y1="24" y2="24" data-name="무제 그라디언트 10" gradientUnits="userSpaceOnUse"><stop offset="0" stop-color="#1ecad3"/><stop offset="1" stop-color="#8b9ffe"/></linearGradient><linearGradient xlink:href="#_무제_그라디언트_10" id="_무제_그라디언트_101" x1="5.93" x2="44.33" y1="24" y2="24" data-name="무제 그라디언트 10"/><linearGradient xlink:href="#_무제_그라디언트_10" id="_무제_그라디언트_102" x1="20.48" x2="28.95" y1="29.17" y2="34.06" data-name="무제 그라디언트 10"/><linearGradient xlink:href="#_무제_그라디언트_10" id="_무제_그라디언트_103" x1="9.2" x2="24.95" y1="35.28" y2="35.28" data-name="무제 그라디언트 10"/><linearGradient xlink:href="#_무제_그라디언트_10" id="_무제_그라디언트_104" x1="22.78" x2="38.57" y1="35.23" y2="35.23" data-name="무제 그라디언트 10"/><linearGradient xlink:href="#_무제_그라디언트_10" id="_무제_그라디언트_105" x1="8.84" x2="38.73" y1="19.97" y2="19.97" data-name="무제 그라디언트 10"/><linearGradient xlink:href="#_무제_그라디언트_10" id="_무제_그라디언트_106" x1="4" x2="44" y1="25.96" y2="25.96" data-name="무제 그라디언트 10"/><linearGradient xlink:href="#_무제_그라디언트_10" id="_무제_그라디언트_107" x1="16.38" x2="30.25" y1="8.6" y2="16.6" data-name="무제 그라디언트 10"/><clipPath id="clippath"><path d="M5.11 4.31h37.78V43.7H5.11z" class="st32"/></clipPath><clipPath id="clippath-1"><path d="M4.68 4.44h38.64v39.12H4.68z" class="st32"/></clipPath><clipPath id="clippath-2"><path d="M4.22 4.22h39.57v39.57H4.22z" class="st32"/></clipPath><clipPath id="clippath-3"><path d="M6.649 39.828 16.6 2.709l26.88 7.208-9.952 37.118z" class="st32"/></clipPath><clipPath id="clippath-4"><path d="M25.66 5.14a8.744 8.744 0 1 0-4.529 16.892A8.744 8.744 0 0 0 25.66 5.14" class="st32"/></clipPath><clipPath id="clippath-5"><path d="M25.66 5.14a8.744 8.744 0 1 0-4.529 16.892A8.744 8.744 0 0 0 25.66 5.14" class="st32"/></clipPath><clipPath id="clippath-6"><path d="M3.36 4.33h38.02v39.33H3.36z" class="st32"/></clipPath><clipPath id="clippath-7"><path d="m22.35 10.23-11.4 31.11c-.33.9.13 1.89 1.03 2.22.19.07.4.11.6.11h22.8c.96 0 1.73-.78 1.73-1.73 0-.2-.04-.4-.11-.6L25.6 10.23c-.33-.9-1.32-1.36-2.22-1.03-.48.18-.85.55-1.03 1.03" class="st32"/></clipPath><clipPath id="clippath-8"><path id="_패스_3262" d="M22.37 10.23 10.98 41.34c-.33.9.13 1.89 1.03 2.22.19.07.39.11.6.11H35.4c.96 0 1.73-.77 1.74-1.73 0-.2-.04-.41-.11-.6l-11.4-31.11c-.33-.9-1.32-1.36-2.22-1.03-.48.18-.85.55-1.03 1.03" class="st32" data-name="패스_326"/></clipPath><clipPath id="clippath-9"><path d="M4.36 15.7h39.27v16.6H4.36z" class="st32"/></clipPath><clipPath id="clippath-10"><path d="M4.27 15.25h39.47v17.5H4.27z" class="st32"/></clipPath><clipPath id="clippath-11"><path d="M4.42 8.08h39.15v28.58H4.42z" class="st32"/></clipPath><clipPath id="clippath-12"><path d="M5.6 4.68h36.8v38.64H5.6z" class="st32"/></clipPath><clipPath id="clippath-13"><path d="M4.37 5.23h39.26v37.54H4.37z" class="st32"/></clipPath><clipPath id="clippath-14"><path d="M.99 32.87 11.19-.474l35 10.707-10.201 33.344z" class="st32"/></clipPath><clipPath id="clippath-15"><path d="M5 8.82h38v30.37H5z" class="st32"/></clipPath><clipPath id="clippath-16"><path d="M5 5.9h38v36.2H5z" class="st32"/></clipPath><clipPath id="clippath-17"><path d="M5 8.82h38v30.37H5z" class="st32"/></clipPath><clipPath id="clippath-18"><path d="M8.62 12.96h30.75v24.58H8.62z" class="st32"/></clipPath><clipPath id="clippath-19"><path d="M5 5.9h38v36.2H5z" class="st32"/></clipPath><clipPath id="clippath-20"><path d="m-59.327 43.433 3.587-20.346 16.565 2.921-3.588 20.346z" class="st32"/></clipPath><clipPath id="clippath-21"><path d="M25.7 24.99h10.42v9.93H25.7z" class="st32"/></clipPath><clipPath id="clippath-22"><path d="M9.49 19.51h12.48v9.97H9.49z" class="st32"/></clipPath><clipPath id="clippath-23"><path d="m10.474 33.196 3.903-3.918 3.734 3.72-3.903 3.917z" class="st32"/></clipPath><radialGradient id="radial-gradient" cx="23.01" cy="39.99" r="4.92" fx="23.01" fy="39.99" gradientUnits="userSpaceOnUse"><stop offset=".01" stop-color="#c3c5d2"/><stop offset=".12" stop-color="#fff"/><stop offset=".3" stop-color="#c1c3d1"/><stop offset=".48" stop-color="#b3a1b3"/><stop offset=".95" stop-color="#7e96b0"/></radialGradient><radialGradient id="radial-gradient1" cx="22.16" cy="19.71" r="13.86" fx="22.16" fy="19.71" gradientUnits="userSpaceOnUse"><stop offset="0" stop-color="#ffe400"/><stop offset=".36" stop-color="#ffde30"/><stop offset=".81" stop-color="#fac12c"/><stop offset="1" stop-color="#eca63a"/></radialGradient><filter id="drop-shadow-1" width="46.32" height="46.32" x="1.88" y="1.88" filterUnits="userSpaceOnUse"><feOffset dx="1" dy="1"/><feGaussianBlur result="blur" stdDeviation="1"/><feFlood flood-color="#000" flood-opacity=".1"/><feComposite in2="blur" operator="in"/><feComposite in="SourceGraphic"/></filter><filter id="drop-shadow-2" width="40" height="40" x="4" y="4" filterUnits="userSpaceOnUse"><feOffset dx="1" dy="1"/><feGaussianBlur result="blur1" stdDeviation="1"/><feFlood flood-color="#000" flood-opacity=".1"/><feComposite in2="blur1" operator="in"/><feComposite in="SourceGraphic"/></filter><style>.st3,.st4{fill:#f8b805}.st11{fill:#8b9ffe}.st4{opacity:.5}.st22,.st24{fill:#434343}.st25{fill:#ffda44}.st26{stroke-width:.7px}.st26,.st27,.st30,.st31,.st32,.st34,.st35,.st36{fill:none}.st26,.st27,.st36,.st45{stroke:#fff}.st26,.st30,.st31,.st34,.st35,.st36,.st46{stroke-linecap:round;stroke-linejoin:round}.st24,.st30,.st35,.st36,.st49,.st50,.st51,.st52,.st53,.st55,.st56,.st57,.st58{display:none}.st46,.st49,.st59,.st60{fill:#1ecad3}.st27{stroke-dasharray:1.02 1.02 1.02 1.02 1.02 1.02;stroke-width:.2px}.st27,.st59{stroke-miterlimit:10}.st74{fill:#7f6154}.st75{fill:#6d8294}.st78{fill:#bababa}.st34,.st35{stroke-width:3px}.st45,.st50,.st79{fill:#fff}.st82{fill:#25a5a5}.st30,.st36{stroke-width:2px}.st30{stroke:#232323}.st31,.st46,.st59{stroke:#1ecad3}.st34,.st35{stroke:#434343}.st92{fill:url(#_무제_그라디언트_58)}.st93{fill:#64c37d}.st96{fill:#9178e0}.st99{fill:#f7aed1}.st108{isolation:isolate}.st4{mix-blend-mode:multiply}.st118{fill:#fff800}.st121{fill:#00d7df}.st123{fill:#ea348b}.st45{fill-rule:evenodd;stroke-miterlimit:4;stroke-width:1px}.st127,.st51{fill:#d2d2d2}.st129{fill:#ffe600}.st133{fill:#91dc5a}.st135,.st52{fill:#232323}.st136{fill:#ff9811}.st137,.st53{fill:#f5f5f5}.st139{fill:#7c84e8}.st141{fill:#616cbc}.st146{fill:#73bcbc}.st147{fill:#bf7822}.st55{fill:#9b7676}.st155{fill:#d8cf25}.st156{fill:#ccc}.st157{fill:#ef2b2a}.st159{fill:#599e69}.st160{fill:#99eff2}.st165,.st58{fill:#979797}.st171{fill:#dadada}.st172{fill:#933ec5}.st177,.st57{fill:#707070}</style><mask id="mask" width="40" height="40" x="4" y="4" maskUnits="userSpaceOnUse"><path id="c" d="M30.04 4c4 0 6 0 8.18.67a8.4 8.4 0 0 1 5.07 5.07c.71 2.18.71 4.22.71 8.22v12.09c0 4 0 6-.67 8.18a8.4 8.4 0 0 1-5.07 5.07c-2.22.71-4.22.71-8.22.71H17.95c-4 0-6 0-8.18-.67a8.55 8.55 0 0 1-5.11-5.11c-.67-2.13-.67-4.13-.67-8.18V17.96c0-4 0-6 .67-8.18.89-2.36 2.71-4.22 5.11-5.07C11.9 4 13.9 4 17.95 4z" class="st79"/></mask></defs><g class="st108"><g id="ConTents"><path id="_좋아요" d="M24.09 42.24c-.36 0-.72-.13-1.01-.39l-2.26-2.05C10.93 30.82 4.41 24.91 4.41 17.42c0-6.27 4.91-11.18 11.18-11.18 3.16 0 6.28 1.33 8.51 3.58 2.23-2.26 5.35-3.58 8.51-3.58 6.27 0 11.18 4.91 11.18 11.18 0 7.47-6.5 13.38-16.34 22.33l-2.33 2.11c-.29.26-.65.39-1.01.39ZM15.58 9.25c-4.58 0-8.18 3.59-8.18 8.18 0 6.16 6.13 11.72 15.41 20.13l1.28 1.16 1.32-1.19c9.25-8.41 15.36-13.96 15.36-20.11 0-4.58-3.59-8.18-8.18-8.18-2.58 0-5.13 1.19-6.82 3.17l-.55.65c-.57.67-1.71.67-2.28 0l-.55-.65c-1.69-1.98-4.24-3.17-6.82-3.17Z" class="st165" data-name="좋아요"/></g></g></svg>