<svg xmlns="http://www.w3.org/2000/svg" id="_레이어_1" version="1.1" viewBox="0 0 48 48"><defs><clipPath id="clippath"><path d="M5.11 4.31h37.78V43.7H5.11z" class="st14"/></clipPath><clipPath id="clippath-1"><path d="M4.68 4.44h38.64v39.12H4.68z" class="st14"/></clipPath><clipPath id="clippath-2"><path d="M4.22 4.22h39.57v39.57H4.22z" class="st14"/></clipPath><clipPath id="clippath-3"><path d="M6.651 39.828 16.604 2.71l26.88 7.208-9.952 37.119z" class="st14"/></clipPath><clipPath id="clippath-4"><path d="M25.66 5.14a8.744 8.744 0 1 0-4.529 16.892A8.744 8.744 0 0 0 25.66 5.14" class="st14"/></clipPath><clipPath id="clippath-5"><path d="M25.66 5.14a8.744 8.744 0 1 0-4.529 16.892A8.744 8.744 0 0 0 25.66 5.14" class="st14"/></clipPath><clipPath id="clippath-6"><path d="M3.36 4.33h38.02v39.33H3.36z" class="st14"/></clipPath><clipPath id="clippath-7"><path d="m22.35 10.23-11.4 31.11c-.33.9.13 1.89 1.03 2.22.19.07.4.11.6.11h22.8c.96 0 1.73-.78 1.73-1.73 0-.2-.04-.4-.11-.6L25.6 10.23c-.33-.9-1.32-1.36-2.22-1.03-.48.18-.85.55-1.03 1.03" class="st14"/></clipPath><clipPath id="clippath-8"><path d="M22.37 10.23 10.98 41.34c-.33.9.13 1.89 1.03 2.22.19.07.39.11.6.11H35.4c.96 0 1.73-.77 1.74-1.73 0-.2-.04-.41-.11-.6l-11.4-31.11c-.33-.9-1.32-1.36-2.22-1.03-.48.18-.85.55-1.03 1.03z" class="st14"/></clipPath><clipPath id="clippath-9"><path d="M4.36 15.7h39.27v16.6H4.36z" class="st14"/></clipPath><clipPath id="clippath-10"><path d="M4.27 15.25h39.47v17.5H4.27z" class="st14"/></clipPath><clipPath id="clippath-11"><path d="M4.42 8.08h39.15v28.58H4.42z" class="st14"/></clipPath><clipPath id="clippath-12"><path d="M5.6 4.68h36.8v38.64H5.6z" class="st14"/></clipPath><clipPath id="clippath-13"><path d="M4.37 5.23h39.26v37.54H4.37z" class="st14"/></clipPath><clipPath id="clippath-14"><path d="m.987 32.87 10.2-33.345 35 10.707-10.201 33.345z" class="st51"/></clipPath><clipPath id="clippath-15"><path d="M4.5 9.52h39v28.96h-39z" class="st14"/></clipPath><clipPath id="clippath-16"><path d="M5 8.82h38v30.37H5z" class="st14"/></clipPath><clipPath id="clippath-17"><path d="M5 5.9h38v36.2H5z" class="st14"/></clipPath><linearGradient id="_무제_그라디언트" x1="-2494.28" x2="-2494.31" y1="530.63" y2="530.33" data-name="무제 그라디언트" gradientTransform="matrix(0 69.4 69.4 0 -36796.28 173127.45)" gradientUnits="userSpaceOnUse"><stop offset="0" stop-color="#1ecad3"/><stop offset=".68" stop-color="#5f9ee6"/><stop offset="1" stop-color="#7d89ef"/></linearGradient><style>.st2{fill:#8b9ffe}.st6,.st7{fill:#434343}.st13,.st14,.st15,.st16,.st22,.st24,.st25,.st27{fill:none}.st13,.st22,.st25,.st27{stroke-miterlimit:10}.st13,.st15,.st16,.st24,.st27{stroke-width:3px}.st15,.st16,.st24{stroke-linejoin:round;stroke-linecap:round}.st31{fill:#fff}.st16,.st33,.st35,.st36,.st7{display:none}.st15,.st16{stroke:#434343}.st39{fill:#bababa}.st13,.st22,.st24{stroke:#1ecad3}.st42{fill:#9178e0}.st46{fill:#fff800}.st33,.st51{fill:#d2d2d2}.st25{stroke:#dadada}.st22{stroke-width:2.92px}.st57{fill:#1ecad3}.st36,.st60{fill:#979797}.st63{fill:#dadada}.st25{stroke-width:1.57px}.st27{stroke:#bababa}.st67{fill:#707070}</style></defs><g id="ConTents"><path d="m23.96 4.77.02 3c4.44 0 8.61 1.73 11.74 4.88 3.14 3.14 4.86 7.31 4.86 11.75 0 9.15-7.46 16.6-16.63 16.6-2.79 0-5.54-.71-7.98-2.05-1.1-.84-2.45-1.3-3.84-1.3-.48 0-.97.06-1.44.16-.06 0-.12.03-.18.05l-.92.27.36-1.21c.49-1.4.36-2.92-.37-4.18-1.43-2.56-2.22-5.46-2.27-8.34 0-4.44 1.72-8.62 4.86-11.76s7.31-4.88 11.76-4.88v-3m.03.01h-.02c-10.84 0-19.62 8.8-19.61 19.64.06 3.44.97 6.8 2.65 9.8.31.54.36 1.19.14 1.77l-1.31 4.4a1.221 1.221 0 0 0 1.61 1.53l3.96-1.18c.25-.06.5-.09.76-.09.78 0 1.55.28 2.16.79a19.6 19.6 0 0 0 9.66 2.55h.02c10.83 0 19.61-8.77 19.61-19.6S34.82 4.76 23.99 4.75h-.02v.02z" class="st51"/><path d="M33.34 21.92c-1.39 0-2.52 1.12-2.52 2.51s1.12 2.52 2.51 2.52 2.51-1.12 2.52-2.51c0-1.38-1.11-2.51-2.49-2.52zM23.96 21.92c-1.38 0-2.51 1.11-2.51 2.49 0 1.39 1.11 2.52 2.5 2.52s2.52-1.11 2.52-2.5-1.11-2.51-2.49-2.52h-.02ZM14.57 21.92a2.51 2.51 0 0 0-2.51 2.5v.02c0 1.39 1.12 2.51 2.51 2.51s2.51-1.12 2.51-2.51c0-1.38-1.11-2.51-2.49-2.52z" class="st51"/></g></svg>