<svg xmlns="http://www.w3.org/2000/svg" viewBox="0 0 48 48"><defs><clipPath id="clippath"><path d="M5.11 4.31h37.78V43.7H5.11z" class="st24"/></clipPath><clipPath id="clippath-1"><path d="M4.68 4.44h38.64v39.12H4.68z" class="st24"/></clipPath><clipPath id="clippath-2"><path d="M4.22 4.22h39.57v39.57H4.22z" class="st24"/></clipPath><clipPath id="clippath-3"><path d="M6.649 39.828 16.6 2.709l26.88 7.208-9.952 37.118z" class="st24"/></clipPath><clipPath id="clippath-4"><path d="M25.66 5.14a8.744 8.744 0 1 0-4.529 16.892A8.744 8.744 0 0 0 25.66 5.14" class="st24"/></clipPath><clipPath id="clippath-5"><path d="M25.66 5.14a8.744 8.744 0 1 0-4.529 16.892A8.744 8.744 0 0 0 25.66 5.14" class="st24"/></clipPath><clipPath id="clippath-6"><path d="M3.36 4.33h38.02v39.33H3.36z" class="st24"/></clipPath><clipPath id="clippath-7"><path d="m22.35 10.23-11.4 31.11c-.33.9.13 1.89 1.03 2.22.19.07.4.11.6.11h22.8c.96 0 1.73-.78 1.73-1.73 0-.2-.04-.4-.11-.6L25.6 10.23c-.33-.9-1.32-1.36-2.22-1.03-.48.18-.85.55-1.03 1.03" class="st24"/></clipPath><clipPath id="clippath-8"><path id="_패스_3262" d="M22.37 10.23 10.98 41.34c-.33.9.13 1.89 1.03 2.22.19.07.39.11.6.11H35.4c.96 0 1.73-.77 1.74-1.73 0-.2-.04-.41-.11-.6l-11.4-31.11c-.33-.9-1.32-1.36-2.22-1.03-.48.18-.85.55-1.03 1.03" class="st24" data-name="패스_326"/></clipPath><clipPath id="clippath-9"><path d="M4.36 15.7h39.27v16.6H4.36z" class="st24"/></clipPath><clipPath id="clippath-10"><path d="M4.27 15.25h39.47v17.5H4.27z" class="st24"/></clipPath><clipPath id="clippath-11"><path d="M4.42 8.08h39.15v28.58H4.42z" class="st24"/></clipPath><clipPath id="clippath-12"><path d="M5.6 4.68h36.8v38.64H5.6z" class="st24"/></clipPath><clipPath id="clippath-13"><path d="M4.37 5.23h39.26v37.54H4.37z" class="st24"/></clipPath><clipPath id="clippath-14"><path d="M.99 32.87 11.19-.474l35 10.707-10.201 33.344z" class="st24"/></clipPath><clipPath id="clippath-15"><path d="M5 8.82h38v30.37H5z" class="st24"/></clipPath><clipPath id="clippath-16"><path d="M5 5.9h38v36.2H5z" class="st24"/></clipPath><linearGradient id="_무제_그라디언트_2" x1="-8.19" x2="-8.22" y1="63.33" y2="63.03" data-name="무제 그라디언트 2" gradientTransform="matrix(0 69.4 69.4 0 -4365.11 593)" gradientUnits="userSpaceOnUse"><stop offset="0" stop-color="#1ecad3"/><stop offset=".68" stop-color="#5f9ee6"/><stop offset="1" stop-color="#7d89ef"/></linearGradient><style>.st1{fill:#8b9ffe}.st4,.st5,.st6{fill:#434343}.st7{fill:#ffda44}.st12{fill:#bababa}.st13{fill:#fff}.st15{fill:#25a5a5}.st16,.st18,.st21,.st22,.st5{display:none}.st16,.st24,.st27{fill:none}.st16,.st27,.st6{stroke:#434343}.st16{stroke-linecap:round;stroke-linejoin:round;stroke-width:3px}.st30{fill:#64c37d}.st31{fill:#9178e0}.st27,.st6{stroke-miterlimit:10}.st32{fill:#f7aed1}.st36{fill:#fff800}.st39{fill:#00d7df}.st40{fill:#ea348b}.st18,.st42{fill:#d2d2d2}.st43{fill:#ffe600}.st45{fill:#91dc5a}.st47{fill:#232323}.st48{fill:#ff9811}.st6{stroke-width:.5px}.st49{fill:#7c84e8}.st50{fill:#616cbc}.st52{fill:#73bcbc}.st53{fill:#bf7822}.st27{stroke-width:2.97px}.st54{fill:#d8cf25}.st55{fill:#1ecad3}.st56{fill:#ef2b2a}.st57{fill:#599e69}.st58{fill:#99eff2}.st22,.st59{fill:#979797}.st62{fill:#dadada}.st63{fill:#933ec5}.st66{fill:#707070}</style></defs><g id="Footer_Navi"><g id="_커뮤니티" data-name="커뮤니티"><path id="_패스_20" d="M24.03 4.46c10.79 0 19.54 8.76 19.53 19.55 0 10.79-8.76 19.54-19.55 19.53-3.38 0-6.69-.88-9.63-2.54-.8-.68-1.88-.95-2.91-.7l-3.95 1.17a1.21 1.21 0 0 1-1.58-.69c-.11-.27-.11-.56-.02-.84l1.3-4.38c.22-.58.17-1.22-.14-1.76a20.63 20.63 0 0 1-2.63-9.76c0-10.8 8.74-19.56 19.54-19.57h.04Zm8.93 17.08a2.51 2.51 0 0 0-2.51 2.5 2.51 2.51 0 0 0 2.5 2.51 2.51 2.51 0 0 0 2.51-2.5c0-1.38-1.11-2.5-2.49-2.51zm-9.01 0c-1.38 0-2.5 1.1-2.5 2.48s1.11 2.51 2.49 2.51 2.51-1.11 2.51-2.49-1.11-2.5-2.49-2.51h-.01Zm-9.01 0c-1.38 0-2.5 1.11-2.5 2.49v.01a2.5 2.5 0 0 0 5 0c0-1.38-1.11-2.5-2.49-2.51h-.01Z" class="st66" data-name="패스_20"/></g></g></svg>