<svg xmlns="http://www.w3.org/2000/svg" viewBox="0 0 48 48"><defs><clipPath id="clippath"><path d="M5.11 4.31h37.78V43.7H5.11z" class="st40"/></clipPath><clipPath id="clippath-1"><path d="M4.68 4.44h38.64v39.12H4.68z" class="st40"/></clipPath><clipPath id="clippath-2"><path d="M4.22 4.22h39.57v39.57H4.22z" class="st40"/></clipPath><clipPath id="clippath-3"><path d="M6.649 39.828 16.6 2.709l26.88 7.208-9.952 37.118z" class="st40"/></clipPath><clipPath id="clippath-4"><path d="M25.66 5.14a8.744 8.744 0 1 0-4.529 16.892A8.744 8.744 0 0 0 25.66 5.14" class="st40"/></clipPath><clipPath id="clippath-5"><path d="M25.66 5.14a8.744 8.744 0 1 0-4.529 16.892A8.744 8.744 0 0 0 25.66 5.14" class="st40"/></clipPath><clipPath id="clippath-6"><path d="M3.36 4.33h38.02v39.33H3.36z" class="st40"/></clipPath><clipPath id="clippath-7"><path d="m22.35 10.23-11.4 31.11c-.33.9.13 1.89 1.03 2.22.19.07.4.11.6.11h22.8c.96 0 1.73-.78 1.73-1.73 0-.2-.04-.4-.11-.6L25.6 10.23c-.33-.9-1.32-1.36-2.22-1.03-.48.18-.85.55-1.03 1.03" class="st40"/></clipPath><clipPath id="clippath-8"><path id="_패스_3262" d="M22.37 10.23 10.98 41.34c-.33.9.13 1.89 1.03 2.22.19.07.39.11.6.11H35.4c.96 0 1.73-.77 1.74-1.73 0-.2-.04-.41-.11-.6l-11.4-31.11c-.33-.9-1.32-1.36-2.22-1.03-.48.18-.85.55-1.03 1.03" class="st40" data-name="패스_326"/></clipPath><clipPath id="clippath-9"><path d="M4.36 15.7h39.27v16.6H4.36z" class="st40"/></clipPath><clipPath id="clippath-10"><path d="M4.27 15.25h39.47v17.5H4.27z" class="st40"/></clipPath><clipPath id="clippath-11"><path d="M4.42 8.08h39.15v28.58H4.42z" class="st40"/></clipPath><clipPath id="clippath-12"><path d="M5.6 4.68h36.8v38.64H5.6z" class="st40"/></clipPath><clipPath id="clippath-13"><path d="M4.37 5.23h39.26v37.54H4.37z" class="st40"/></clipPath><clipPath id="clippath-14"><path d="M.99 32.87 11.19-.474l35 10.707-10.201 33.344z" class="st40"/></clipPath><clipPath id="clippath-15"><path d="M5 8.82h38v30.37H5z" class="st40"/></clipPath><clipPath id="clippath-16"><path d="M8.62 12.96h30.75v24.58H8.62z" class="st40"/></clipPath><clipPath id="clippath-17"><path d="M5 5.9h38v36.2H5z" class="st40"/></clipPath><filter id="drop-shadow-1" width="46.32" height="46.32" x="1.88" y="1.88" filterUnits="userSpaceOnUse"><feOffset dx="1" dy="1"/><feGaussianBlur result="blur" stdDeviation="1"/><feFlood flood-color="#000" flood-opacity=".1"/><feComposite in2="blur" operator="in"/><feComposite in="SourceGraphic"/></filter><filter id="drop-shadow-2" width="40" height="40" x="4" y="4" filterUnits="userSpaceOnUse"><feOffset dx="1" dy="1"/><feGaussianBlur result="blur1" stdDeviation="1"/><feFlood flood-color="#000" flood-opacity=".1"/><feComposite in2="blur1" operator="in"/><feComposite in="SourceGraphic"/></filter><linearGradient id="_무제_그라디언트_2" x1="-8.19" x2="-8.22" y1="63.33" y2="63.03" data-name="무제 그라디언트 2" gradientTransform="matrix(0 69.4 69.4 0 -4365.11 593)" gradientUnits="userSpaceOnUse"><stop offset="0" stop-color="#1ecad3"/><stop offset=".68" stop-color="#5f9ee6"/><stop offset="1" stop-color="#7d89ef"/></linearGradient><style>.st0,.st1{fill:#f8b805}.st4{fill:#8b9ffe}.st10,.st8{fill:#434343}.st11{fill:#ffda44}.st10,.st13,.st14,.st16,.st17,.st18,.st20,.st25,.st27,.st28{display:none}.st13,.st31{fill:#1ecad3}.st33{fill:#7f6154}.st1{opacity:.5}.st38{fill:#bababa}.st14,.st17,.st18,.st40{fill:none}.st14,.st17,.st18{stroke-linecap:round;stroke-linejoin:round}.st17{stroke-width:3px}.st16,.st46{fill:#fff}.st48{fill:#25a5a5}.st14,.st18{stroke-width:2px}.st14{stroke:#232323}.st17{stroke:#434343}.st50{fill:#64c37d}.st51{fill:#9178e0}.st52{fill:#f7aed1}.st18{stroke:#fff}.st1{mix-blend-mode:multiply}.st58{fill:#fff800}.st61{fill:#00d7df}.st62{fill:#ea348b}.st20,.st64{fill:#d2d2d2}.st65{fill:#ffe600}.st67{fill:#91dc5a}.st69{fill:#232323}.st70{fill:#ff9811}.st72{fill:#7c84e8}.st73{fill:#616cbc}.st75{fill:#73bcbc}.st76{fill:#bf7822}.st77{fill:#d8cf25}.st78{fill:#ccc}.st79{fill:#ef2b2a}.st80{fill:#599e69}.st81{fill:#99eff2}.st28,.st83{fill:#979797}.st86{fill:#dadada}.st87{fill:#933ec5}.st27,.st89{fill:#707070}</style></defs><g style="isolation:isolate"><g id="Footer_Navi"><g id="_포인트" data-name="포인트"><path id="_패스_191" d="M23.98 4.59C13.26 4.6 4.58 13.3 4.59 24.02s8.71 19.4 19.43 19.39c10.71-.01 19.39-8.7 19.39-19.41S34.73 4.6 24.02 4.59zm8.23 31.05L24 30.69l-8.21 4.95 2.17-9.33-7.24-6.27 9.55-.82L24 10.41l3.73 8.8 9.55.82-7.24 6.26z" class="st31" data-name="패스_19"/></g></g></g></svg>