<?xml version="1.0" encoding="UTF-8"?>
<svg id="_레이어_1" data-name="레이어_1" xmlns="http://www.w3.org/2000/svg" version="1.1" xmlns:xlink="http://www.w3.org/1999/xlink" viewBox="0 0 48 48">
  <!-- Generator: Adobe Illustrator 29.7.1, SVG Export Plug-In . SVG Version: 2.1.1 Build 8)  -->
  <defs>
    <style>
      .st0 {
        fill: #ffefd9;
      }

      .st1 {
        fill: url(#_무제_그라디언트);
      }

      .st2 {
        fill: #8b9ffe;
      }

      .st3 {
        clip-path: url(#clippath-6);
      }

      .st4 {
        clip-path: url(#clippath-7);
      }

      .st5, .st6, .st7 {
        fill: #434343;
      }

      .st8 {
        stroke: #9178e0;
        stroke-width: 2.73px;
      }

      .st8, .st9, .st10, .st11, .st12, .st13, .st14, .st15, .st16, .st17, .st18, .st19, .st20, .st21 {
        fill: none;
      }

      .st8, .st10, .st12, .st13, .st14, .st15, .st16, .st19, .st20, .st21 {
        stroke-miterlimit: 10;
      }

      .st22 {
        clip-path: url(#clippath-4);
      }

      .st9 {
        stroke: #707070;
        stroke-width: 2.76px;
      }

      .st9, .st23, .st24, .st17, .st18 {
        stroke-linejoin: round;
      }

      .st9, .st23, .st24, .st17, .st18, .st20 {
        stroke-linecap: round;
      }

      .st25 {
        clip-path: url(#clippath-9);
      }

      .st26 {
        clip-path: url(#clippath-10);
      }

      .st27 {
        fill: #bababa;
      }

      .st28, .st24 {
        fill: #fff;
      }

      .st6, .st29, .st23, .st13, .st30 {
        display: none;
      }

      .st31 {
        clip-path: url(#clippath-11);
      }

      .st10, .st23, .st24, .st17, .st18, .st20, .st21 {
        stroke-width: 3px;
      }

      .st10, .st12, .st15, .st16, .st18, .st20 {
        stroke: #1ecad3;
      }

      .st32 {
        fill: #9178e0;
      }

      .st29 {
        opacity: .2;
      }

      .st23, .st24, .st7 {
        stroke: #434343;
      }

      .st23, .st33 {
        fill: #1ecad3;
      }

      .st34 {
        clip-path: url(#clippath-1);
      }

      .st12 {
        stroke-width: 2.78px;
      }

      .st35 {
        clip-path: url(#clippath-5);
      }

      .st36 {
        clip-path: url(#clippath-8);
      }

      .st37 {
        clip-path: url(#clippath-3);
      }

      .st13 {
        stroke: #d66e6e;
        stroke-width: 1.2px;
      }

      .st38 {
        clip-path: url(#clippath-12);
      }

      .st14 {
        stroke-width: 3.07px;
      }

      .st14, .st19 {
        stroke: #dadada;
      }

      .st15 {
        stroke-width: 3.2px;
      }

      .st16 {
        stroke-width: 2.92px;
      }

      .st7 {
        stroke-width: 1.84px;
      }

      .st39 {
        clip-path: url(#clippath-2);
      }

      .st40 {
        fill: #dadada;
      }

      .st17 {
        stroke: #d2d2d2;
      }

      .st19 {
        stroke-width: 1.57px;
      }

      .st41 {
        clip-path: url(#clippath-13);
      }

      .st42 {
        fill: #d2d2d2;
      }

      .st43 {
        clip-path: url(#clippath);
      }

      .st21 {
        stroke: #bababa;
      }

      .st44 {
        fill: #707070;
      }
    </style>
    <clipPath id="clippath">
      <rect class="st11" x="9.2" y="8.58" width="29.5" height="30.76"/>
    </clipPath>
    <clipPath id="clippath-1">
      <rect class="st11" x="4.68" y="4.44" width="38.64" height="39.12"/>
    </clipPath>
    <clipPath id="clippath-2">
      <rect class="st11" x="4.22" y="4.22" width="39.57" height="39.57"/>
    </clipPath>
    <clipPath id="clippath-3">
      <rect class="st11" x="5.85" y="10.96" width="38.43" height="27.83" transform="translate(-5.45 42.64) rotate(-74.99)"/>
    </clipPath>
    <clipPath id="clippath-4">
      <path class="st11" d="M25.66,5.14c-4.67-1.25-9.46,1.52-10.71,6.18-1.25,4.67,1.52,9.46,6.18,10.71,4.67,1.25,9.46-1.52,10.71-6.18,1.25-4.67-1.52-9.46-6.18-10.71Z"/>
    </clipPath>
    <clipPath id="clippath-5">
      <path class="st11" d="M25.66,5.14c-4.67-1.25-9.46,1.52-10.71,6.18-1.25,4.67,1.52,9.46,6.18,10.71,4.67,1.25,9.46-1.52,10.71-6.18,1.25-4.67-1.52-9.46-6.18-10.71Z"/>
    </clipPath>
    <clipPath id="clippath-6">
      <rect class="st11" x="3.36" y="4.33" width="38.02" height="39.33"/>
    </clipPath>
    <clipPath id="clippath-7">
      <path class="st11" d="M22.35,10.23l-11.4,31.11c-.33.9.13,1.89,1.03,2.22.19.07.4.11.6.11h22.8c.96,0,1.73-.78,1.73-1.73,0-.2-.04-.4-.11-.6l-11.4-31.11c-.33-.9-1.32-1.36-2.22-1.03-.48.18-.85.55-1.03,1.03Z"/>
    </clipPath>
    <clipPath id="clippath-8">
      <path class="st11" d="M22.37,10.23l-11.39,31.11c-.33.9.13,1.89,1.03,2.22.19.07.39.11.6.11h22.79c.96,0,1.73-.77,1.74-1.73,0-.2-.04-.41-.11-.6l-11.4-31.11c-.33-.9-1.32-1.36-2.22-1.03-.48.18-.85.55-1.03,1.03h-.01Z"/>
    </clipPath>
    <clipPath id="clippath-9">
      <rect class="st11" x="4.36" y="15.7" width="39.27" height="16.6"/>
    </clipPath>
    <clipPath id="clippath-10">
      <rect class="st11" x="4.27" y="15.25" width="39.47" height="17.5"/>
    </clipPath>
    <clipPath id="clippath-11">
      <rect class="st11" x="4.42" y="8.08" width="39.15" height="28.58"/>
    </clipPath>
    <clipPath id="clippath-12">
      <rect class="st11" x="5.6" y="4.68" width="36.8" height="38.64"/>
    </clipPath>
    <clipPath id="clippath-13">
      <rect class="st11" x="4.37" y="5.23" width="39.26" height="37.54"/>
    </clipPath>
    <linearGradient id="_무제_그라디언트" data-name="무제 그라디언트" x1="-282.55" y1="358.59" x2="-282.58" y2="358.89" gradientTransform="translate(24915.93 19633.37) rotate(90) scale(69.4)" gradientUnits="userSpaceOnUse">
      <stop offset="0" stop-color="#1ecad3"/>
      <stop offset=".68" stop-color="#5f9ee6"/>
      <stop offset="1" stop-color="#7d89ef"/>
    </linearGradient>
  </defs>
  <g id="_메뉴_아이콘" class="st30">
    <g id="_레이어_11" data-name="_레이어_1" class="st30">
      <g>
        <g>
          <path id="_패스_294" class="st2" d="M39.29,18.27c0,2.38-1.93,4.3-4.3,4.3s-4.3-1.93-4.3-4.3,1.93-4.3,4.3-4.3,4.3,1.93,4.3,4.3"/>
          <path id="_패스_295" class="st2" d="M43.15,31.15c.61-4.51-2.54-8.66-7.05-9.27-4.51-.61-8.66,2.54-9.27,7.05-.05.37-.07.74-.08,1.11,0,.37.03.75.08,1.11h16.32Z"/>
        </g>
        <g>
          <path id="_패스_296" class="st32" d="M17.32,18.26c0,2.38-1.93,4.3-4.3,4.3s-4.3-1.93-4.3-4.3,1.93-4.3,4.3-4.3,4.3,1.93,4.3,4.3h0"/>
          <path id="_패스_297" class="st32" d="M21.17,31.14c.05-.37.08-.74.08-1.11-.06-4.55-3.8-8.19-8.35-8.13-4.47.06-8.07,3.67-8.13,8.13,0,.37.03.75.08,1.11h16.32Z"/>
        </g>
        <g>
          <path id="_패스_298" class="st33" d="M31.68,16.3c0,4.27-3.46,7.72-7.72,7.72s-7.72-3.46-7.72-7.72,3.46-7.72,7.72-7.72h0c4.27,0,7.72,3.46,7.72,7.72"/>
          <path id="_패스_299" class="st33" d="M38.6,39.42c1.15-8.09-4.47-15.57-12.56-16.72s-15.57,4.47-16.72,12.56c-.2,1.38-.2,2.78,0,4.17h29.28Z"/>
        </g>
      </g>
      <g class="st30">
        <g>
          <path id="_패스_2941" class="st40" d="M39.29,18.27c0,2.38-1.93,4.3-4.3,4.3s-4.3-1.93-4.3-4.3,1.93-4.3,4.3-4.3,4.3,1.93,4.3,4.3"/>
          <path id="_패스_2951" class="st40" d="M43.15,31.15c.61-4.51-2.54-8.66-7.05-9.27-4.51-.61-8.66,2.54-9.27,7.05-.05.37-.07.74-.08,1.11,0,.37.03.75.08,1.11h16.32Z"/>
        </g>
        <g>
          <path id="_패스_2961" class="st40" d="M17.32,18.26c0,2.38-1.93,4.3-4.3,4.3s-4.3-1.93-4.3-4.3,1.93-4.3,4.3-4.3,4.3,1.93,4.3,4.3h0"/>
          <path id="_패스_2971" class="st40" d="M21.17,31.14c.05-.37.08-.74.08-1.11-.06-4.55-3.8-8.19-8.35-8.13-4.47.06-8.07,3.67-8.13,8.13,0,.37.03.75.08,1.11h16.32Z"/>
        </g>
        <g>
          <path id="_패스_2981" class="st27" d="M31.68,16.3c0,4.27-3.46,7.72-7.72,7.72s-7.72-3.46-7.72-7.72,3.46-7.72,7.72-7.72h0c4.27,0,7.72,3.46,7.72,7.72"/>
          <path id="_패스_2991" class="st27" d="M38.6,39.42c1.15-8.09-4.47-15.57-12.56-16.72s-15.57,4.47-16.72,12.56c-.2,1.38-.2,2.78,0,4.17h29.28Z"/>
        </g>
      </g>
    </g>
    <g id="_레이어_2" class="st30">
      <g id="_그룹_1520">
        <g class="st43">
          <g id="_그룹_1519">
            <path id="_패스_300" class="st33" d="M31.65,16.28c0,4.25-3.45,7.7-7.7,7.7s-7.7-3.45-7.7-7.7,3.45-7.7,7.7-7.7h0c4.25,0,7.7,3.45,7.7,7.7"/>
            <path id="_패스_301" class="st33" d="M38.55,39.34c1.13-8.07-4.49-15.52-12.55-16.66-8.07-1.13-15.52,4.49-16.66,12.55-.1.7-.15,1.4-.14,2.11,0,.67.06,1.33.15,2h29.2Z"/>
          </g>
        </g>
      </g>
      <g>
        <circle class="st27" cx="23.95" cy="16.28" r="7.7"/>
        <path class="st27" d="M38.55,39.34c.09-.65.15-1.32.15-2,0-8.15-6.6-14.75-14.75-14.75s-14.75,6.6-14.75,14.75c0,.68.06,1.34.15,2,0,0,29.2,0,29.2,0Z"/>
      </g>
    </g>
    <g id="_레이어_4" class="st30">
      <g>
        <circle class="st28" cx="24" cy="24" r="19.26"/>
        <line class="st10" x1="23.84" y1="7.08" x2="23.84" y2="39.94"/>
        <path class="st10" d="M10.37,14.23c3.31.87,7.8,1.7,13.14,1.71,5.48.01,10.07-.83,13.43-1.71"/>
        <line class="st10" x1="7.3" y1="24.65" x2="40.38" y2="24.65"/>
        <path class="st10" d="M12.05,34.08c2.28-1.03,6.51-2.58,12-2.57,5.43.01,9.62,1.54,11.89,2.57"/>
        <path class="st10" d="M23.66,7.51c-5.97,3.51-9.58,9.97-9.36,16.82.33,10.12,8.81,15.29,9.36,15.61"/>
        <path class="st10" d="M24,7.51c5.97,3.51,9.58,9.97,9.36,16.82-.33,10.12-8.81,15.29-9.36,15.61"/>
        <path class="st32" d="M24.6,18.94l1.26,2.03,2.32.57c.8.2,1.11,1.16.58,1.79l-1.54,1.82.17,2.38c.06.82-.76,1.42-1.52,1.11l-2.21-.9-2.21.9c-.76.31-1.58-.29-1.52-1.11l.17-2.38-1.54-1.82c-.53-.63-.22-1.59.58-1.79l2.32-.57,1.26-2.03c.43-.7,1.45-.7,1.88,0Z"/>
        <circle class="st10" cx="24" cy="24" r="16.59"/>
      </g>
      <g class="st30">
        <circle class="st40" cx="24" cy="24" r="19.26"/>
        <line class="st21" x1="23.84" y1="7.08" x2="23.84" y2="39.94"/>
        <path class="st21" d="M10.37,14.23c3.31.87,7.8,1.7,13.14,1.71,5.48.01,10.07-.83,13.43-1.71"/>
        <line class="st21" x1="7.3" y1="24.65" x2="40.38" y2="24.65"/>
        <path class="st21" d="M12.05,34.08c2.28-1.03,6.51-2.58,12-2.57,5.43.01,9.62,1.54,11.89,2.57"/>
        <path class="st21" d="M23.66,7.51c-5.97,3.51-9.58,9.97-9.36,16.82.33,10.12,8.81,15.29,9.36,15.61"/>
        <path class="st21" d="M24,7.51c5.97,3.51,9.58,9.97,9.36,16.82-.33,10.12-8.81,15.29-9.36,15.61"/>
        <path class="st28" d="M24.6,18.94l1.26,2.03,2.32.57c.8.2,1.11,1.16.58,1.79l-1.54,1.82.17,2.38c.06.82-.76,1.42-1.52,1.11l-2.21-.9-2.21.9c-.76.31-1.58-.29-1.52-1.11l.17-2.38-1.54-1.82c-.53-.63-.22-1.59.58-1.79l2.32-.57,1.26-2.03c.43-.7,1.45-.7,1.88,0Z"/>
        <circle class="st21" cx="24" cy="24" r="16.59"/>
      </g>
    </g>
    <g id="_레이어_5" class="st30">
      <g id="_그룹_1524" class="st30">
        <g class="st34">
          <g id="_그룹_1523">
            <path id="_패스_310" class="st32" d="M20.85,12.98c1.3-2.83,3.44-5.19,6.13-6.75,7.58-4.27,15.92.42,16.35.67"/>
            <path id="_패스_311" class="st32" d="M43.32,6.91c-1.3,2.83-3.44,5.19-6.13,6.75-7.58,4.27-15.92-.42-16.35-.67"/>
            <path id="_패스_312" class="st2" d="M20.84,13.11c-1.79.68-3.75.79-5.61.32-5.16-1.37-6.75-6.98-6.83-7.27"/>
            <path id="_패스_313" class="st2" d="M8.41,6.16c1.79-.68,3.75-.79,5.61-.32,5.17,1.38,6.75,6.98,6.83,7.27"/>
            <path id="_패스_314" class="st33" d="M22.76,13.8l3.81,7.81,8.61,1.21c1.17.16,1.98,1.24,1.82,2.41-.07.47-.29.91-.63,1.24l-6.25,6.03,1.51,8.56c.2,1.16-.57,2.27-1.73,2.47-.47.08-.95,0-1.37-.22l-7.67-4.08-7.67,4.08c-1.04.55-2.33.16-2.88-.88-.22-.42-.3-.9-.22-1.37l1.51-8.56-6.25-6.03c-.85-.82-.87-2.17-.06-3.01.33-.34.77-.57,1.24-.63l8.61-1.21,3.8-7.81c.52-1.06,1.79-1.5,2.85-.98.43.21.77.55.98.98"/>
          </g>
        </g>
      </g>
      <g>
        <path id="_패스_3101" class="st40" d="M20.85,12.98c1.3-2.83,3.44-5.19,6.13-6.75,7.58-4.27,15.92.42,16.35.67"/>
        <path id="_패스_3111" class="st40" d="M43.32,6.91c-1.3,2.83-3.44,5.19-6.13,6.75-7.58,4.27-15.92-.42-16.35-.67"/>
        <path id="_패스_3121" class="st40" d="M20.84,13.11c-1.79.68-3.75.79-5.61.32-5.16-1.37-6.75-6.98-6.83-7.27"/>
        <path id="_패스_3131" class="st40" d="M8.41,6.16c1.79-.68,3.75-.79,5.61-.32,5.17,1.38,6.75,6.98,6.83,7.27"/>
        <path id="_패스_3141" class="st27" d="M22.76,13.8l3.81,7.81,8.61,1.21c1.17.16,1.98,1.24,1.82,2.41-.07.47-.29.91-.63,1.24l-6.25,6.03,1.51,8.56c.2,1.16-.57,2.27-1.73,2.47-.47.08-.95,0-1.37-.22l-7.67-4.08-7.67,4.08c-1.04.55-2.33.16-2.88-.88-.22-.42-.3-.9-.22-1.37l1.51-8.56-6.25-6.03c-.85-.82-.87-2.17-.06-3.01.33-.34.77-.57,1.24-.63l8.61-1.21,3.8-7.81c.52-1.06,1.79-1.5,2.85-.98.43.21.77.55.98.98"/>
      </g>
    </g>
    <g id="_레이어_6" class="st30">
      <g id="_그룹_1554">
        <g class="st39">
          <g id="_그룹_1553">
            <path id="_패스_351" class="st33" d="M43.78,24c0,10.93-8.86,19.78-19.78,19.78S4.22,34.93,4.22,24,13.08,4.22,24,4.22h0c10.93,0,19.78,8.86,19.78,19.78"/>
            <path id="_패스_352" class="st28" d="M20.46,31.17c0,1.78-1.95,3.21-4.36,3.21s-4.36-1.44-4.36-3.21,1.95-3.21,4.36-3.21,4.36,1.44,4.36,3.21"/>
            <path id="_패스_353" class="st28" d="M32.31,27.95c0,1.78-1.95,3.21-4.36,3.21s-4.36-1.44-4.36-3.21,1.95-3.21,4.36-3.21,4.36,1.44,4.36,3.21"/>
            <rect id="_사각형_1061" class="st28" x="18.38" y="15.64" width="2.09" height="15.92"/>
            <path id="_패스_354" class="st28" d="M32.31,27.95h-2.09v-15.54l2.09-.63v16.16h0Z"/>
            <rect id="_사각형_1062" class="st28" x="18.42" y="18.09" width="13.54" height="2.09" transform="translate(-4.11 7.22) rotate(-15.1)"/>
            <rect id="_사각형_1063" class="st28" x="18.42" y="13.82" width="13.54" height="2.09" transform="translate(-3 7.08) rotate(-15.1)"/>
          </g>
        </g>
      </g>
      <g>
        <circle class="st40" cx="24" cy="24" r="19.78"/>
        <g>
          <ellipse class="st27" cx="16.1" cy="31.17" rx="4.36" ry="3.22"/>
          <ellipse class="st27" cx="27.95" cy="27.95" rx="4.36" ry="3.22"/>
          <rect class="st27" x="18.38" y="15.64" width="2.09" height="15.92"/>
          <polygon class="st27" points="32.31 27.95 30.22 27.95 30.22 12.41 32.31 11.79 32.31 27.95"/>
          <rect class="st27" x="18.42" y="18.08" width="13.54" height="2.09" transform="translate(-4.11 7.22) rotate(-15.1)"/>
          <rect class="st27" x="18.42" y="13.81" width="13.54" height="2.09" transform="translate(-3 7.08) rotate(-15.1)"/>
        </g>
      </g>
    </g>
    <g id="_레이어_7" class="st30">
      <g id="_그룹_1561">
        <g id="_그룹_1558">
          <g class="st37">
            <g id="_그룹_1557">
              <path id="_패스_362" class="st33" d="M30.63,33.85c-.24.9-1.43,1.36-2.64,1.04s-2.01-1.32-1.77-2.22,1.43-1.36,2.64-1.04,2.01,1.32,1.77,2.22"/>
              <path id="_패스_363" class="st33" d="M37.06,33.83c-.24.9-1.43,1.36-2.64,1.04s-2.01-1.32-1.77-2.22,1.43-1.36,2.64-1.04,2.01,1.32,1.77,2.22"/>
              <rect id="_사각형_1066" class="st33" x="26.95" y="29.33" width="8.34" height="1.09" transform="translate(-5.8 52.19) rotate(-74.99)"/>
              <path id="_패스_364" class="st33" d="M37.06,33.83l-1.06-.28,2.11-7.87,1.14-.03-2.19,8.19h0Z"/>
              <rect id="_사각형_1067" class="st33" x="31.1" y="27.85" width="7.1" height="1.09" transform="translate(-.03 .04) rotate(-.07)"/>
              <rect id="_사각형_1068" class="st33" x="31.68" y="25.68" width="7.1" height="1.09" transform="translate(-.03 .04) rotate(-.07)"/>
              <path id="_패스_365" class="st32" d="M11.7,41.18l7.39,1.98,8.08-21.7-11-2.95-4.48,22.67h0Z"/>
              <path id="_패스_366" class="st33" d="M31.84,15.85c-1.25,4.67-6.05,7.43-10.71,6.18-4.67-1.25-7.43-6.05-6.18-10.71,1.25-4.67,6.05-7.43,10.71-6.18h0c4.67,1.25,7.43,6.05,6.18,10.71h0"/>
            </g>
          </g>
        </g>
        <g id="_그룹_1560">
          <g class="st22">
            <g id="_그룹_1559">
              <path id="_패스_367" class="st19" d="M14.66,10.58c2.72,1.9,5.77,3.28,9,4.06,2.84.71,5.78.95,8.69.68"/>
            </g>
          </g>
        </g>
      </g>
      <g>
        <path id="_패스_3651" class="st40" d="M11.7,41.18l7.39,1.98,8.08-21.7-11-2.95-4.48,22.67h0Z"/>
        <path id="_패스_3661" class="st27" d="M31.84,15.85c-1.25,4.67-6.05,7.43-10.71,6.18-4.67-1.25-7.43-6.05-6.18-10.71,1.25-4.67,6.05-7.43,10.71-6.18h0c4.67,1.25,7.43,6.05,6.18,10.71h0"/>
        <g>
          <path id="_패스_3621" class="st27" d="M30.63,33.85c-.24.9-1.43,1.36-2.64,1.04s-2.01-1.32-1.77-2.22,1.43-1.36,2.64-1.04,2.01,1.32,1.77,2.22"/>
          <path id="_패스_3631" class="st27" d="M37.06,33.83c-.24.9-1.43,1.36-2.64,1.04s-2.01-1.32-1.77-2.22c.24-.9,1.43-1.36,2.64-1.04s2.01,1.32,1.77,2.22"/>
          <rect id="_사각형_10661" class="st27" x="26.95" y="29.33" width="8.34" height="1.09" transform="translate(-5.8 52.19) rotate(-74.99)"/>
          <path id="_패스_3641" class="st27" d="M37.06,33.83l-1.06-.28,2.11-7.87,1.14-.03-2.19,8.19h0Z"/>
          <rect id="_사각형_10671" class="st27" x="31.1" y="27.85" width="7.1" height="1.09" transform="translate(-.03 .04) rotate(-.07)"/>
          <rect id="_사각형_10681" class="st27" x="31.68" y="25.68" width="7.1" height="1.09" transform="translate(-.03 .04) rotate(-.07)"/>
        </g>
        <rect class="st11" x="5.85" y="10.96" width="38.43" height="27.83" transform="translate(-5.45 42.64) rotate(-74.99)"/>
        <g id="_그룹_15601">
          <g class="st35">
            <g id="_그룹_15591">
              <path id="_패스_3671" class="st19" d="M14.66,10.58c2.72,1.9,5.77,3.28,9,4.06,2.84.71,5.78.95,8.69.68"/>
            </g>
          </g>
        </g>
      </g>
    </g>
    <g id="_레이어_8" class="st30">
      <g>
        <g id="_그룹_1533">
          <g class="st3">
            <g id="_그룹_1532">
              <path id="_패스_326" class="st33" d="M22.35,10.23l-11.39,31.11c-.33.9.13,1.89,1.03,2.22.19.07.39.11.6.11h22.79c.96,0,1.73-.77,1.74-1.73,0-.2-.04-.41-.11-.6l-11.4-31.11c-.33-.9-1.32-1.36-2.22-1.03-.48.18-.85.55-1.03,1.03"/>
            </g>
          </g>
        </g>
        <g id="_그룹_1535">
          <g class="st4">
            <g id="_그룹_1534">
              <rect id="_사각형_1048" class="st32" x="3.53" y="18.19" width="34.45" height="5.9" transform="translate(-4.79 6.14) rotate(-15.1)"/>
              <rect id="_사각형_1049" class="st32" x="6.76" y="30.16" width="34.45" height="5.9" transform="translate(-7.8 7.39) rotate(-15.1)"/>
            </g>
          </g>
        </g>
        <g id="_그룹_1536">
          <path id="_패스_328" class="st2" d="M27.87,8.23c0,2.15-1.74,3.89-3.89,3.89s-3.89-1.74-3.89-3.89,1.74-3.89,3.89-3.89h0c2.15,0,3.89,1.74,3.89,3.89"/>
        </g>
        <rect class="st11" x="3.36" y="4.33" width="38.02" height="39.33"/>
      </g>
      <g>
        <g id="_그룹_15321">
          <path id="_패스_3261" class="st27" d="M22.37,10.23l-11.39,31.11c-.33.9.13,1.89,1.03,2.22.19.07.39.11.6.11h22.79c.96,0,1.73-.77,1.74-1.73,0-.2-.04-.41-.11-.6l-11.4-31.11c-.33-.9-1.32-1.36-2.22-1.03-.48.18-.85.55-1.03,1.03"/>
        </g>
        <g id="_그룹_15361">
          <path id="_패스_3281" class="st40" d="M27.89,8.23c0,2.15-1.74,3.89-3.89,3.89s-3.89-1.74-3.89-3.89,1.74-3.89,3.89-3.89h0c2.15,0,3.89,1.74,3.89,3.89"/>
        </g>
        <g class="st36">
          <g>
            <rect class="st11" x="3.38" y="4.33" width="38.02" height="39.33"/>
            <g id="_그룹_15341">
              <rect id="_사각형_10481" class="st40" x="3.55" y="18.2" width="34.45" height="5.9" transform="translate(-4.79 6.14) rotate(-15.1)"/>
              <rect id="_사각형_10491" class="st40" x="6.78" y="30.15" width="34.45" height="5.9" transform="translate(-7.79 7.4) rotate(-15.1)"/>
            </g>
            <path class="st11" d="M22.37,10.23l-11.4,31.11c-.33.9.13,1.89,1.03,2.22.19.07.4.11.6.11h22.8c.96,0,1.73-.78,1.73-1.73,0-.2-.04-.4-.11-.6l-11.4-31.11c-.33-.9-1.32-1.36-2.22-1.03-.48.18-.85.55-1.03,1.03Z"/>
            <rect class="st11" x="3.38" y="4.33" width="38.02" height="39.33"/>
          </g>
        </g>
      </g>
    </g>
    <g id="_레이어_9" class="st30">
      <g id="_그룹_1540">
        <g class="st25">
          <g id="_그룹_1539">
            <path id="_패스_329" class="st33" d="M40.15,23.18c.25-3.36-5.29-4.89-10-3.61-2.64.63-4.95,2.25-6.42,4.54-1.48-2.28-3.78-3.91-6.42-4.54-4.71-1.28-8.87-.55-9.68,2.72-.81,3.27,1.75,8.29,6.47,9.58,3.98,1.08,7.2-1.14,9.63-2.65,2.24,1.84,5.86,3.85,9.84,2.77,4.71-1.28,6.34-5.49,6.59-8.81"/>
            <path id="_패스_330" class="st28" d="M21.42,26.63c0,1.06-1.03,2.16-2.85,1.93-2.26-.13-4.09-1.87-4.34-4.11.73.32,1.52.49,2.31.51.72.04,2.15-.26,2.57-.26,1.17-.1,2.2.76,2.31,1.93"/>
            <path id="_패스_331" class="st28" d="M25.94,26.63c0,1.06,1.03,2.16,2.85,1.93,2.26-.13,4.09-1.87,4.34-4.11-.73.32-1.52.49-2.31.51-.72.04-2.15-.26-2.57-.26-1.17-.1-2.2.76-2.31,1.93"/>
            <path id="_패스_332" class="st32" d="M8.22,19.16c1.16,1.3.53,3.76.53,3.76,0,0-2.52.36-3.68-.94s-.53-3.76-.53-3.76c0,0,2.52-.36,3.68.94"/>
            <path id="_패스_333" class="st32" d="M39.76,19.22c-1.12,1.34-.4,3.78-.4,3.78,0,0,2.53.27,3.64-1.07,1.12-1.34.4-3.78.4-3.78,0,0-2.53-.27-3.64,1.07"/>
            <path id="_패스_334" class="st2" d="M20.75,20.07c0,2.42,2.93,4.37,2.93,4.37,0,0,2.93-1.96,2.93-4.37s-2.93-4.37-2.93-4.37c0,0-2.93,1.96-2.93,4.37"/>
          </g>
        </g>
      </g>
      <g>
        <path id="_패스_3291" class="st27" d="M40.15,23.18c.25-3.36-5.29-4.89-10-3.61-2.64.63-4.95,2.25-6.42,4.54-1.48-2.28-3.78-3.91-6.42-4.54-4.71-1.28-8.87-.55-9.68,2.72-.81,3.27,1.75,8.29,6.47,9.58,3.98,1.08,7.2-1.14,9.63-2.65,2.24,1.84,5.86,3.85,9.84,2.77,4.71-1.28,6.34-5.49,6.59-8.81"/>
        <path id="_패스_3301" class="st28" d="M21.42,26.63c0,1.06-1.03,2.16-2.85,1.93-2.26-.13-4.09-1.87-4.34-4.11.73.32,1.52.49,2.31.51.72.04,2.15-.26,2.57-.26,1.17-.1,2.2.76,2.31,1.93"/>
        <path id="_패스_3311" class="st28" d="M25.94,26.63c0,1.06,1.03,2.16,2.85,1.93,2.26-.13,4.09-1.87,4.34-4.11-.73.32-1.52.49-2.31.51-.72.04-2.15-.26-2.57-.26-1.17-.1-2.2.76-2.31,1.93"/>
        <path id="_패스_3321" class="st40" d="M8.22,19.16c1.16,1.3.53,3.76.53,3.76,0,0-2.52.36-3.68-.94s-.53-3.76-.53-3.76c0,0,2.52-.36,3.68.94"/>
        <path id="_패스_3331" class="st40" d="M39.76,19.22c-1.12,1.34-.4,3.78-.4,3.78,0,0,2.53.27,3.64-1.07,1.12-1.34.4-3.78.4-3.78,0,0-2.53-.27-3.64,1.07"/>
        <path id="_패스_3341" class="st40" d="M20.75,20.07c0,2.42,2.93,4.37,2.93,4.37,0,0,2.93-1.96,2.93-4.37s-2.93-4.37-2.93-4.37c0,0-2.93,1.96-2.93,4.37"/>
        <rect class="st11" x="4.36" y="15.7" width="39.27" height="16.6"/>
      </g>
    </g>
    <g id="_레이어_10" class="st30">
      <g id="_그룹_1542">
        <g class="st26">
          <g id="_그룹_1541">
            <path id="_패스_335" class="st32" d="M30.78,21.19c1.38-1.47,3.26-2.36,5.27-2.5l5.48-.74c1.06-.16,2.05.58,2.21,1.64s-.58,2.05-1.64,2.21h-.05l-.25.03c.77.75.79,1.98.04,2.75-.3.31-.7.51-1.14.57l-.55.07c.5.69.49,1.64-.03,2.32-.32.41-.78.68-1.29.75l-2.68.36c-.71.81-1.7,1.32-2.77,1.41-.95.02-1.88-.29-2.62-.87-.83-.75-1.39-1.76-1.57-2.87-.5-2.7,1.35-4.85,1.59-5.13"/>
            <path id="_패스_336" class="st32" d="M15.49,20.65c-1.15-1.32-2.76-2.17-4.5-2.36l-4.74-.82c-.92-.18-1.81.42-1.99,1.33-.18.92.42,1.81,1.33,1.99.02,0,.05,0,.07.01l.21.04c-.69.63-.75,1.7-.12,2.39.25.28.59.47.96.53l.48.08c-.46.59-.48,1.41-.05,2.02.26.36.65.61,1.09.7l2.32.4c.59.73,1.43,1.2,2.36,1.33.83.05,1.64-.19,2.31-.67.75-.63,1.27-1.49,1.47-2.45.27-1.61-.17-3.26-1.21-4.51"/>
            <path id="_패스_337" class="st33" d="M28.31,15.25c-1.75.05-3.37.93-4.36,2.37-.39.52-.44.52-.83,0-.99-1.44-2.61-2.33-4.36-2.37,0,0-5.39-.09-5.39,5.39,0,4.99,5.72,9.57,8.58,11.56.93.74,2.25.74,3.17,0,2.86-1.98,8.58-6.57,8.58-11.56,0-5.48-5.39-5.39-5.39-5.39"/>
          </g>
        </g>
      </g>
      <g>
        <path class="st40" d="M30.78,21.19c1.36-1.53,3.48-2.39,5.27-2.51l5.48-.73c1.06-.14,2.04.61,2.19,1.67h0c.14,1.06-.61,2.04-1.67,2.19l-.25.03c.3.29.51.69.57,1.13h0c.14,1.06-.61,2.04-1.67,2.19l-.55.07c.18.25.31.55.35.88h0c.07.53-.08,1.04-.38,1.44-.48.62-1.16.73-1.29.75-.89.12-1.78.24-2.68.36-.89.87-1.85,1.42-2.77,1.41-.79,0-1.84-.19-2.62-.87-1.21-1.06-1.49-2.44-1.57-2.88-.5-2.7,1.35-4.85,1.59-5.13Z"/>
        <path class="st40" d="M15.49,20.65c-1.13-1.38-2.95-2.19-4.5-2.36l-4.74-.82c-.92-.16-1.8.46-1.96,1.38h0c-.16.92.46,1.8,1.38,1.96l.21.04c-.27.25-.47.58-.54.97h0c-.16.92.46,1.8,1.38,1.96l.48.08c-.17.21-.29.47-.34.75h0c-.08.46.04.91.29,1.26.39.56.98.67,1.09.69.77.13,1.54.27,2.32.4.74.78,1.56,1.3,2.36,1.32.69.02,1.61-.11,2.31-.67,1.09-.88,1.38-2.07,1.46-2.45.53-2.33-1.01-4.26-1.21-4.51h.01Z"/>
        <path class="st27" d="M28.31,15.25c-2.31,0-3.72,1.52-4.36,2.37-.39.52-.44.52-.83,0-.64-.85-2.05-2.37-4.36-2.37,0,0-5.39-.09-5.39,5.39,0,4.98,5.72,9.57,8.58,11.56,1.08.75,2.11.74,3.17,0,2.86-1.98,8.58-6.57,8.58-11.56,0-5.48-5.39-5.39-5.39-5.39Z"/>
      </g>
    </g>
    <g id="uuid-6053ab6f-b3dd-40a1-a047-0a5def51fe3a" data-name="_레이어_11" class="st30">
      <g id="_그룹_1544">
        <g class="st31">
          <g id="_그룹_1543">
            <path id="_패스_338" class="st33" d="M40.13,13.55h-8.12c.02-.11.03-.23.03-.34v-2.22c0-1.6-1.3-2.9-2.9-2.9h-10.3c-1.6,0-2.9,1.3-2.9,2.9v2.22c0,.12.02.23.03.34H7.87c-1.9,0-3.45,1.54-3.45,3.45v16.23c0,1.9,1.54,3.45,3.45,3.45h32.26c1.9,0,3.45-1.54,3.45-3.45v-16.23c0-1.9-1.54-3.45-3.45-3.45"/>
            <path id="_패스_339" class="st8" d="M30.31,24.65c0,3.48-2.82,6.31-6.31,6.31s-6.31-2.82-6.31-6.31,2.82-6.31,6.31-6.31h0c3.48,0,6.31,2.82,6.31,6.31h0Z"/>
          </g>
        </g>
      </g>
      <g>
        <path class="st27" d="M40.13,13.55h-8.12c0-.11.03-.23.03-.34v-2.22c0-1.6-1.3-2.9-2.9-2.9h-10.3c-1.6,0-2.9,1.3-2.9,2.9v2.22c0,.12.02.23.03.34H7.87c-1.9,0-3.45,1.54-3.45,3.45v16.23c0,1.9,1.54,3.45,3.45,3.45h32.26c1.9,0,3.45-1.54,3.45-3.45v-16.23c0-1.9-1.54-3.45-3.45-3.45Z"/>
        <circle class="st14" cx="24" cy="24.65" r="6.31"/>
      </g>
    </g>
    <g id="_레이어_12" class="st30">
      <g id="_그룹_1547">
        <path id="_패스_340" class="st33" d="M21.25,6.7h8.24l-11.48,19.57h-6.97l-3-19.57h8.39l.72,8.22,4.09-8.22h.01ZM20.19,4.68l-.78,1.53-1.07-1.53H5.6l3.6,23.61,1.21,1.35h9.68l13.72-23.43-1.01-1.53h-12.63.02Z"/>
        <g id="_그룹_1546">
          <g class="st38">
            <g id="_그룹_1545">
              <path id="_패스_341" class="st32" d="M20.12,28.76c.1.06.2.12.3.19.11.07.22.13.33.19-.15-.52-.24-1.05-.24-1.59s.04-1.1.16-1.64c.26-1.33.78-2.6,1.53-3.73.7-1.04,1.61-1.92,2.67-2.59,1.14-.71,2.39-1.22,3.7-1.49,1.51-.33,3.06-.49,4.61-.48,1.39,0,2.77.18,4.12.52,1.4.35,2.77.85,4.06,1.49l1.03,1.49-2.02,9.43c.28.6.46,1.23.55,1.89.09.78.06,1.57-.09,2.35-.25,1.27-.73,2.48-1.44,3.56-.7,1.06-1.6,1.97-2.65,2.68-1.17.78-2.47,1.36-3.83,1.7-1.64.41-3.32.61-5.01.59-1.5,0-2.99-.19-4.44-.55-1.54-.39-3.02-.97-4.41-1.72l-1.21-1.4,2.27-10.89h.01ZM20.09,38.39c1.04.55,2.15.95,3.3,1.18,1.25.25,2.52.38,3.79.37,2.57.14,5.13-.44,7.39-1.67,1.73-1.07,2.9-2.86,3.19-4.87.23-.97.17-1.98-.16-2.91-.31-.75-.8-1.41-1.44-1.92-.68-.53-1.44-.94-2.25-1.23-.85-.31-1.7-.59-2.52-.84-.37-.11-.57-.22-.62-.3-.05-.06-.07-.14-.05-.22.02-.1.12-.16.3-.2.19-.04.39-.06.59-.06.53,0,1.06.04,1.59.1.58.07,1.15.16,1.72.27.54.11,1.08.24,1.61.4.42.13.84.28,1.24.46l1.26-6.05c-.92-.44-1.89-.77-2.9-.97-1.12-.23-2.27-.34-3.42-.33-2.33-.09-4.65.42-6.72,1.49-1.77,1.02-2.99,2.78-3.34,4.79-.13.64-.14,1.29-.03,1.93.13.66.4,1.29.79,1.83.46.63,1.03,1.18,1.69,1.61.83.55,1.73.98,2.68,1.28.5.15.99.32,1.47.52.31.13.44.28.4.43-.05.16-.19.28-.36.29-.26.04-.53.06-.79.06-.51,0-1.02-.06-1.53-.13-.65-.09-1.33-.21-2.03-.36s-1.38-.33-2.03-.53c-.54-.15-1.05-.37-1.53-.65l-1.31,6.21.02.02Z"/>
            </g>
          </g>
        </g>
      </g>
      <g>
        <path class="st27" d="M18.34,4.68l1.07,1.53.78-1.53h12.63l1.01,1.53-13.72,23.43h-9.69l-1.21-1.35L5.6,4.68h12.74ZM8.05,6.7l3,19.57h6.98L29.5,6.7h-8.24l-4.09,8.21-.72-8.21h-8.4Z"/>
        <path class="st27" d="M20.12,28.76c.1.06.2.12.3.19.11.07.22.13.33.19-.15-.52-.24-1.05-.25-1.59,0-.54.04-1.09.16-1.64.31-1.44.82-2.69,1.53-3.73.71-1.05,1.6-1.91,2.67-2.59s2.3-1.18,3.7-1.5c1.4-.32,2.94-.48,4.61-.48,1.36,0,2.74.17,4.12.52,1.38.35,2.74.85,4.06,1.5l1.04,1.5-2.02,9.43c.27.56.45,1.19.55,1.89s.07,1.48-.09,2.35c-.27,1.33-.75,2.51-1.44,3.56-.69,1.05-1.58,1.94-2.65,2.68-1.08.74-2.35,1.31-3.83,1.7s-3.15.59-5.02.59c-1.48,0-2.96-.18-4.44-.55-1.48-.37-2.95-.94-4.41-1.73l-1.21-1.38,2.28-10.9h0ZM20.09,38.39c1,.54,2.1.93,3.3,1.18,1.2.25,2.46.37,3.79.37,3.17,0,5.64-.56,7.39-1.67s2.82-2.74,3.19-4.87c.21-1.17.16-2.14-.16-2.91s-.8-1.41-1.44-1.92-1.39-.92-2.25-1.23-1.7-.59-2.52-.84c-.37-.11-.57-.22-.62-.3-.05-.09-.06-.16-.04-.22.02-.1.12-.16.3-.2.18-.04.38-.06.59-.06.48,0,1.01.03,1.59.1.58.07,1.15.16,1.73.27.58.11,1.11.25,1.61.4s.91.31,1.24.46l1.27-6.05c-.86-.42-1.83-.74-2.9-.97-1.07-.22-2.2-.33-3.42-.33-2.73,0-4.97.5-6.72,1.5s-2.86,2.59-3.34,4.79c-.13.65-.14,1.3-.03,1.93.12.63.38,1.24.79,1.83.41.59.98,1.12,1.69,1.61s1.6.92,2.68,1.28c.67.21,1.16.38,1.47.52.31.13.44.28.4.43s-.16.25-.36.29-.47.06-.79.06c-.37,0-.87-.04-1.53-.13-.65-.09-1.33-.21-2.03-.36s-1.38-.33-2.03-.53c-.65-.2-1.16-.42-1.53-.65l-1.33,6.2v.02Z"/>
      </g>
    </g>
    <g id="_레이어_13" class="st30">
      <g>
        <g>
          <g id="_그룹_1549">
            <g class="st41">
              <g id="_그룹_1548">
                <path id="_패스_342" class="st32" d="M21.7,35.67c0,1.07-1.18,1.94-2.64,1.94s-2.64-.87-2.64-1.94,1.18-1.94,2.64-1.94,2.64.87,2.64,1.94"/>
                <path id="_패스_343" class="st32" d="M28.86,33.73c0,1.07-1.18,1.94-2.64,1.94s-2.64-.87-2.64-1.94,1.18-1.94,2.64-1.94,2.64.87,2.64,1.94"/>
                <rect id="_사각형_1055" class="st32" x="20.44" y="26.29" width="1.26" height="9.62"/>
                <path id="_패스_344" class="st32" d="M28.86,33.73h-1.27v-9.39l1.27-.38s0,9.77,0,9.77Z"/>
                <rect id="_사각형_1056" class="st32" x="20.47" y="27.77" width="8.19" height="1.26" transform="translate(-6.55 7.38) rotate(-15.1)"/>
                <rect id="_사각형_1057" class="st32" x="20.47" y="25.18" width="8.19" height="1.26" transform="translate(-5.88 7.29) rotate(-15.1)"/>
              </g>
            </g>
          </g>
          <path id="_패스_345" class="st33" d="M4.48,7.15l11.8-.11c.91,1.55,2.89,3.46,2.09,9.62-1.13,8.77-8.02,13.36-9.06,14.03h-4.83"/>
          <path id="_패스_346" class="st33" d="M4.48,30.4h4.63c1.37,1.97,2.52,4.08,3.42,6.29.8,1.96,1.41,4,1.81,6.08H4.48s0-12.37,0-12.37Z"/>
          <path id="_패스_347" class="st33" d="M43.63,7.11l-11.41-.03c-.91,1.55-3.42,3.41-2.62,9.58,1.13,8.77,8.02,13.36,9.06,14.03h4.83"/>
          <path id="_패스_348" class="st33" d="M43.49,30.4h-4.63c-2.59,3.71-4.37,7.93-5.23,12.37h9.86v-12.37Z"/>
          <path id="_패스_350" class="st2" d="M43.22,32.42h-5.3c-.23,0-.41-.18-.41-.41v-1.54c0-.23.19-.41.41-.41h5.3c.23,0,.41.18.41.41v1.54c0,.23-.18.41-.41.41"/>
          <rect class="st11" x="4.37" y="5.23" width="39.26" height="37.54"/>
        </g>
        <path id="_패스_349" class="st2" d="M10.08,32.42h-5.3c-.23,0-.41-.18-.41-.41v-1.54c0-.23.19-.41.41-.41h5.3c.23,0,.41.18.41.41v1.54c0,.23-.18.41-.41.41"/>
        <rect id="_사각형_1059" class="st2" x="4.37" y="5.23" width="39.26" height="3.72"/>
      </g>
      <g>
        <g>
          <ellipse class="st27" cx="19.07" cy="35.67" rx="2.64" ry="1.94"/>
          <ellipse class="st27" cx="26.23" cy="33.73" rx="2.64" ry="1.94"/>
          <rect class="st27" x="20.44" y="26.29" width="1.26" height="9.62"/>
          <polygon class="st27" points="28.86 33.73 27.6 33.73 27.6 24.34 28.86 23.96 28.86 33.73"/>
          <rect class="st27" x="20.47" y="27.78" width="8.19" height="1.26" transform="translate(-6.55 7.38) rotate(-15.1)"/>
          <rect class="st27" x="20.47" y="25.19" width="8.19" height="1.26" transform="translate(-5.88 7.29) rotate(-15.1)"/>
        </g>
        <g>
          <path class="st40" d="M4.48,7.14l11.8-.11c.91,1.55,2.89,3.46,2.09,9.62-1.13,8.77-8.02,13.36-9.06,14.03h-4.83"/>
          <path class="st40" d="M4.48,30.4h4.63c1.11,1.59,2.36,3.69,3.42,6.29.93,2.27,1.48,4.35,1.81,6.08H4.48s0-12.37,0-12.37Z"/>
        </g>
        <g>
          <path class="st40" d="M43.63,7.11l-11.41-.03c-.91,1.55-3.41,3.41-2.62,9.58,1.13,8.77,8.02,13.36,9.06,14.03h4.83"/>
          <path class="st40" d="M43.49,30.4h-4.63c-1.11,1.59-2.36,3.69-3.42,6.29-.93,2.27-1.48,4.35-1.81,6.08h9.86s0-12.37,0-12.37Z"/>
        </g>
        <rect class="st27" x="4.37" y="30.06" width="6.13" height="2.36" rx=".59" ry=".59"/>
        <rect class="st27" x="37.51" y="30.06" width="6.13" height="2.36" rx=".59" ry=".59"/>
        <rect class="st27" x="4.37" y="5.23" width="39.26" height="3.72"/>
      </g>
    </g>
    <g id="_레이어_14">
      <g>
        <path class="st2" d="M34.9,41.77H12.99c-1.35-4.29-2.78-10.96-1.76-18.91.38-2.95,1.03-5.57,1.76-7.81h21.91c.84,2.17,1.62,4.79,2.07,7.81,1.23,8.22-.63,15.03-2.07,18.91Z"/>
        <path class="st33" d="M42.2,43.73c.11-.82.19-1.64.19-2.49,0-10.15-8.23-18.38-18.38-18.38S5.62,31.09,5.62,41.24c0,.85.08,1.67.19,2.49,0,0,36.39,0,36.39,0Z"/>
        <circle class="st0" cx="24" cy="14.99" r="9.6"/>
        <path class="st2" d="M12.99,15.77h21.92c-.02-.69.38-5.1-3.26-8.53-3.51-3.3-7.92-3-8.57-2.94-.63.03-5.06.35-7.94,4.09-2.44,3.17-2.07,6.59-2.14,7.38h0Z"/>
      </g>
      <g>
        <path class="st27" d="M34.9,41.77H12.99c-1.35-4.29-2.78-10.96-1.76-18.91.38-2.95,1.03-5.57,1.76-7.81h21.91c.84,2.17,1.62,4.79,2.07,7.81,1.23,8.22-.63,15.03-2.07,18.91Z"/>
        <path class="st40" d="M42.2,43.73c.11-.82.19-1.64.19-2.49,0-10.15-8.23-18.38-18.38-18.38S5.62,31.09,5.62,41.24c0,.85.08,1.67.19,2.49,0,0,36.39,0,36.39,0Z"/>
        <circle class="st40" cx="24" cy="14.99" r="9.6"/>
        <path class="st27" d="M12.99,15.77h21.92c-.02-.69.38-5.1-3.26-8.53-3.51-3.3-7.92-3-8.57-2.94-.63.03-5.06.35-7.94,4.09-2.44,3.17-2.07,6.59-2.14,7.38h0Z"/>
      </g>
    </g>
  </g>
  <g id="_좌측메뉴아이콘" class="st30">
    <g id="_팬앤쇼핑" class="st30">
      <g>
        <path class="st33" d="M24.41,36.16c0,2.3-1.87,4.17-4.17,4.17s-4.17-1.87-4.17-4.17,1.87-4.17,4.17-4.17,4.17,1.87,4.17,4.17Z"/>
        <path class="st33" d="M36.58,36.16c0,2.3-1.87,4.17-4.17,4.17s-4.17-1.87-4.17-4.17,1.87-4.17,4.17-4.17,4.17,1.87,4.17,4.17Z"/>
        <polyline class="st18" points="5.91 7.67 10.02 8.79 17.52 28.67 36.66 28.67 42.09 15.87 14.02 15.87"/>
        <polygon class="st33" points="14.02 16.8 18.55 28.67 36.35 28.67 41.61 15.87 14.02 16.8"/>
      </g>
    </g>
    <g id="_레이어_19" class="st30">
      <g>
        <path class="st33" d="M10.62,18.34c-.17-.09-.37-.14-.57-.14s-.39.05-.57.14c-.2.11-.36.27-.47.46l-4.66,8.89c-.09.17-.14.36-.14.56,0,.65.53,1.18,1.18,1.18.43,0,.83-.23,1.03-.61l.02-.04,4.62-8.82.04-.08c.08-.16.12-.33.12-.51,0-.43-.24-.83-.62-1.04h.02Z"/>
        <path class="st33" d="M43.75,22.16c-.43-1.38-1.38-2.52-2.66-3.19-.76-.4-1.63-.61-2.49-.62h-.04c-1.9,0-3.68,1.02-4.65,2.65l-.18.31-.19-.3c-.29-.48-.66-.91-1.09-1.28-1-.87-2.29-1.35-3.61-1.35-1.6,0-3.13.69-4.18,1.91l-4.84,5.59-.04.04s-.02.02-.03.04c-.61.7-1.48,1.11-2.39,1.11-.41,0-.8-.08-1.17-.24-.97-.41-1.67-1.22-1.9-2.22-.23-.98.03-2.02.69-2.78.59-.68,1.44-1.07,2.33-1.09h2.13c.63-.03,1.13-.55,1.13-1.18s-.5-1.15-1.13-1.18h-2.14c-1.7.02-3.27.8-4.31,2.14-1.7,2.19-1.51,5.32.45,7.28,1.05,1.05,2.43,1.62,3.91,1.62s3.01-.64,4.05-1.76l.06-.06,4.97-5.73s.01-.02.02-.03c.6-.69,1.47-1.09,2.39-1.09.76,0,1.49.27,2.06.77,1.02.88,1.36,2.31.86,3.56-.08.19-.18.38-.29.56-.09.13-.16.23-.25.33-.6.69-1.47,1.09-2.39,1.09-.76,0-1.49-.27-2.06-.77-.09-.08-.17-.16-.25-.25h0l-.13-.16c-.23-.28-.56-.44-.92-.44-.11,0-.22.02-.33.05-.44.13-.77.51-.84.97,0,.05-.01.11-.01.16,0,.23.07.46.19.64.02.03.09.12.09.12.2.25.43.48.67.69,1,.87,2.28,1.35,3.61,1.35h.29c1.51-.08,2.89-.75,3.88-1.9.18-.21.35-.44.5-.67.15-.24.29-.5.41-.79l1.93-3.69c.53-1.01,1.57-1.64,2.71-1.64.5,0,.99.12,1.43.35.72.38,1.26,1.02,1.5,1.8.24.78.17,1.61-.21,2.33l-1.3,2.48-.03.06c-.07.16-.11.33-.11.5,0,.65.53,1.18,1.18,1.18.45,0,.85-.25,1.05-.65l.09-.18h0l1.2-2.29c.67-1.28.81-2.75.37-4.14h0Z"/>
        <circle class="st33" cx="10.02" cy="28.56" r="1.07"/>
      </g>
    </g>
    <g id="_이벤트" class="st30">
      <path class="st32" d="M21.32,34.82c-.07-.02-.14-.05-.2-.1-.19-.14-.28-.39-.21-.62l.89-3.09-2.51-2.01c-.19-.15-.26-.4-.19-.63.08-.23.29-.39.53-.39l3.21-.1,1.14-3c.09-.23.3-.37.54-.37.05,0,.09,0,.14.02.18.05.33.18.4.36l1.09,3.02,3.21.15s.08,0,.11.02c.19.05.35.19.41.38.07.23,0,.48-.2.63l-2.54,1.97.85,3.1c.06.23-.02.48-.22.62-.14.1-.32.13-.48.09-.06-.02-.13-.04-.18-.08l-2.66-1.8-2.69,1.76c-.14.09-.3.12-.46.08h.02Z"/>
      <rect class="st18" x="5.91" y="10.25" width="36.18" height="31.92" rx="3.01" ry="3.01"/>
      <g>
        <rect class="st33" x="14.27" y="4" width="3.35" height="7.17" rx="1.5" ry="1.5"/>
        <rect class="st33" x="30.39" y="4" width="3.35" height="7.17" rx="1.5" ry="1.5"/>
      </g>
      <rect class="st33" x="6.73" y="10.91" width="34.72" height="8.98"/>
    </g>
    <g id="_공지사항" class="st30">
      <rect class="st32" x="6.98" y="14.16" width="6.32" height="13.06" rx="1.5" ry="1.5"/>
      <rect class="st32" x="15.95" y="28.17" width="6.59" height="14.77" rx="1.5" ry="1.5" transform="translate(-6.83 4.65) rotate(-11.73)"/>
      <path class="st33" d="M14.48,10.39l22.92-5.05c1.86-.41,3.62,1,3.62,2.91v22.21c0,1.81-1.6,3.2-3.39,2.95l-22.92-3.19c-1.47-.2-2.56-1.46-2.56-2.95v-13.96c0-1.4.97-2.61,2.34-2.91h-.01Z"/>
    </g>
    <g id="_이용안내" class="st30">
      <g>
        <path class="st33" d="M35.73,33.12l-2.15,5.98c-.24.66.5,1.25,1.09.87l6-3.85c1.59-1.02.87-3.49-1.02-3.49h-3.22c-.31,0-.59.2-.69.49h0Z"/>
        <rect class="st33" x="4.71" y="7.9" width="38.57" height="28.94" rx="5.49" ry="5.49"/>
        <path class="st28" d="M22.71,25.72c-.21,0-.38-.06-.52-.19-.14-.13-.2-.35-.19-.68.07-1.3.71-2.43,1.91-3.38.22-.18.46-.35.7-.52.25-.17.47-.35.67-.54s.37-.4.5-.62.2-.46.2-.71c0-.5-.17-.92-.51-1.23-.34-.32-.79-.49-1.36-.5-.25,0-.5.04-.73.11-.24.07-.46.18-.68.31s-.41.29-.59.47-.32.36-.42.56c-.28.46-.61.59-.98.38l-1.87-1.16c-.39-.22-.47-.56-.24-1.02.53-1.02,1.28-1.83,2.23-2.43s2.05-.91,3.28-.92c.88-.01,1.65.11,2.32.38.68.27,1.24.64,1.7,1.11s.81,1.03,1.04,1.68c.24.64.36,1.33.36,2.06,0,.93-.24,1.76-.73,2.47s-1.07,1.32-1.76,1.82c-.34.25-.67.53-.98.84s-.48.66-.51,1.04c-.02.27-.08.45-.19.54-.11.1-.27.14-.48.14h-2.18.01ZM23.68,31.12c-.56,0-1.04-.2-1.43-.59s-.59-.87-.59-1.43.2-1.04.59-1.43.87-.59,1.43-.59,1.04.2,1.43.59.59.87.59,1.43-.2,1.04-.59,1.43-.87.59-1.43.59Z"/>
      </g>
    </g>
    <g id="_고객센터" class="st30">
      <path class="st20" d="M10.35,30.21c-1.72-3.6-1.97-7.83-.34-11.72,3.1-7.44,11.88-10.87,19.61-7.65s11.47,11.87,8.37,19.31"/>
      <path class="st33" d="M14.44,24c-5.52,0-10,3.43-10,7.67s4.48,7.67,10,7.67v-15.34Z"/>
      <path class="st33" d="M33.61,39.34c5.52,0,10-3.43,10-7.67s-4.48-7.67-10-7.67v15.34Z"/>
    </g>
    <g id="_설정" class="st30">
      <path class="st33" d="M38.74,25.94h0c.09-.64.13-1.29.14-1.94,0-.65-.05-1.3-.14-1.94l4.18-3.27c.38-.31.48-.84.24-1.27l-3.97-6.86c-.24-.42-.75-.61-1.21-.44l-4.94,1.98c-1.02-.79-2.15-1.45-3.35-1.94l-.75-5.25c-.07-.48-.48-.84-.97-.83h-7.93c-.49,0-.9.35-.97.83l-.75,5.25c-1.19.5-2.32,1.16-3.35,1.94l-4.94-1.98c-.46-.18-.98,0-1.21.44l-3.97,6.86c-.25.42-.15.97.24,1.27l4.18,3.27c-.09.64-.13,1.29-.14,1.94,0,.65.05,1.3.14,1.94l-4.18,3.27c-.38.31-.48.84-.24,1.27l3.97,6.86c.24.42.75.61,1.21.44l4.94-1.98c1.02.79,2.15,1.45,3.35,1.94l.75,5.25c.07.48.48.84.97.83h7.93c.49,0,.9-.35.97-.83l.75-5.25c1.19-.5,2.32-1.16,3.35-1.94l4.94,1.98c.46.18.98,0,1.21-.44l3.97-6.86c.24-.42.14-.96-.24-1.27,0,0-4.18-3.27-4.18-3.27ZM30.94,24c0,3.83-3.11,6.93-6.94,6.94-3.83,0-6.94-3.11-6.94-6.94s3.11-6.94,6.94-6.94,6.94,3.11,6.94,6.94h0Z"/>
    </g>
    <g id="_언어변경">
      <g>
        <line class="st16" x1="23.84" y1="6.07" x2="23.84" y2="42.19"/>
        <path class="st15" d="M9.03,13.62c3.77,1.11,8.9,2.17,15,2.18,6.25.02,11.49-1.06,15.32-2.18"/>
        <line class="st16" x1="5.65" y1="25.38" x2="42.03" y2="25.38"/>
        <path class="st16" d="M10.88,35.75c2.51-1.13,7.15-2.84,13.19-2.83,5.97,0,10.57,1.7,13.08,2.83"/>
        <path class="st16" d="M23.64,6.54c-6.57,3.85-10.53,10.96-10.29,18.49.36,11.12,9.69,16.81,10.29,17.16"/>
        <path class="st16" d="M24.01,6.54c6.57,3.85,10.53,10.96,10.29,18.49-.36,11.12-9.69,16.81-10.29,17.16"/>
        <circle class="st12" cx="24.16" cy="24" r="18.19"/>
      </g>
    </g>
  </g>
  <g id="_네비게이션바" class="st30">
    <g id="_투표" class="st30">
      <path id="_패스_18" class="st44" d="M15.21,41.76H4.48v-23.68h10.74v23.68h0ZM29.37,6.24h-10.74v35.52h10.74V6.24ZM43.52,22.03h-10.74v19.74h10.74s0-19.74,0-19.74Z"/>
    </g>
    <g id="_애즈닷" class="st30">
      <g>
        <rect class="st9" x="5.61" y="14.9" width="36.78" height="24.88" rx="2.76" ry="2.76"/>
        <path class="st44" d="M29.92,26.12l-8.45-4.88c-.94-.54-2.12.14-2.12,1.22v9.76c0,1.09,1.18,1.76,2.12,1.22l8.45-4.88c.94-.54.94-1.9,0-2.44Z"/>
        <path class="st44" d="M18.07,8.65h0c.59-.59,1.54-.59,2.12,0l4.95,4.95c.59.59.59,1.54,0,2.12h0c-.59.59-1.54.59-2.12,0l-4.95-4.95c-.59-.59-.59-1.54,0-2.12Z"/>
        <path class="st44" d="M30.98,8.66h0c.59.59.59,1.54,0,2.12l-4.95,4.95c-.59.59-1.54.59-2.12,0h0c-.59-.59-.59-1.54,0-2.12l4.95-4.95c.59-.59,1.54-.59,2.12,0Z"/>
      </g>
    </g>
    <g id="AI추천" class="st30">
      <g>
        <rect id="_사각형_61" class="st1" x="8.76" y="8.76" width="30.48" height="30.48" rx="5.02" ry="5.02" transform="translate(-9.94 24) rotate(-45)"/>
        <path id="_패스_95" class="st28" d="M28.15,21.74l.94-2.07,2.07-.94-2.07-.94-.94-2.07-.94,2.07-2.07.94,2.07.94.94,2.07ZM22.5,22.12l-1.88-4.14-1.88,4.14-4.14,1.88,4.14,1.88,1.88,4.14,1.88-4.14,4.14-1.88-4.14-1.88ZM28.15,26.26l-.94,2.07-2.07.94,2.07.94.94,2.07.94-2.07,2.07-.94-2.07-.94s-.94-2.07-.94-2.07Z"/>
      </g>
    </g>
    <g id="_커뮤니티" class="st30">
      <path id="_패스_20" class="st44" d="M24.03,4.46c10.79,0,19.54,8.76,19.53,19.55,0,10.79-8.76,19.54-19.55,19.53-3.38,0-6.69-.88-9.63-2.54-.8-.68-1.88-.95-2.91-.7h0l-3.95,1.17c-.63.25-1.34-.06-1.58-.69-.11-.27-.11-.56-.02-.84h0l1.3-4.38c.22-.58.17-1.22-.14-1.76-1.67-2.99-2.58-6.34-2.63-9.76C4.45,13.24,13.19,4.48,23.99,4.47h.04,0ZM32.96,21.54c-1.38,0-2.51,1.12-2.51,2.5s1.12,2.51,2.5,2.51,2.51-1.12,2.51-2.5h0c0-1.38-1.11-2.5-2.49-2.51h0ZM23.95,21.54c-1.38,0-2.5,1.1-2.5,2.48h0c0,1.38,1.11,2.51,2.49,2.51s2.51-1.11,2.51-2.49-1.11-2.5-2.49-2.51h-.01ZM14.94,21.54c-1.38,0-2.5,1.11-2.5,2.49h0c0,1.39,1.12,2.51,2.5,2.51s2.5-1.12,2.5-2.5-1.11-2.5-2.49-2.51h-.01,0Z"/>
    </g>
    <g id="_포인트">
      <path id="_패스_19" class="st44" d="M23.98,4.59c-10.72.01-19.4,8.71-19.39,19.43.01,10.72,8.71,19.4,19.43,19.39,10.71,0,19.39-8.7,19.39-19.41S34.73,4.6,24.02,4.59h-.04ZM32.21,35.64l-8.21-4.95-8.21,4.95,2.17-9.33-7.24-6.27,9.55-.82,3.73-8.81,3.73,8.8,9.55.82-7.24,6.26,2.17,9.35Z"/>
    </g>
  </g>
  <g id="_헤더_아이콘">
    <g class="st30">
      <path id="_사각형_2" class="st5" d="M7.24,7.14h33.53c1.59,0,2.87,1.36,2.87,3.03h0c0,1.67-1.29,3.03-2.87,3.03H7.24c-1.59,0-2.87-1.36-2.87-3.03h0c0-1.67,1.29-3.03,2.87-3.03Z"/>
      <path id="_사각형_11" class="st5" d="M6.9,21.32h34.11c1.4,0,2.54,1.2,2.54,2.68h0c0,1.48-1.14,2.68-2.54,2.68H6.9c-1.4,0-2.54-1.2-2.54-2.68h0c0-1.48,1.14-2.68,2.54-2.68Z"/>
      <path id="_사각형_12" class="st5" d="M7.24,34.79h33.53c1.59,0,2.87,1.36,2.87,3.03h0c0,1.67-1.29,3.03-2.87,3.03H7.24c-1.59,0-2.87-1.36-2.87-3.03h0c0-1.67,1.29-3.03,2.87-3.03Z"/>
    </g>
    <path id="_공유" class="st5" d="M35.8,32.09c-1.43,0-2.8.55-3.85,1.51l-14.01-8.15c.11-.45.17-.91.18-1.37,0-.46-.07-.92-.18-1.37l13.85-8.07c2.38,2.21,6.1,2.06,8.31-.32,2.21-2.38,2.06-6.1-.32-8.31s-6.1-2.06-8.31.32c-1.01,1.09-1.57,2.52-1.57,4,0,.46.07.92.18,1.37l-13.85,8.08c-2.38-2.22-6.1-2.09-8.32.28-2.22,2.38-2.09,6.1.28,8.32,2.26,2.11,5.78,2.11,8.04,0l13.99,8.17c-.1.42-.15.85-.16,1.28,0,3.17,2.57,5.74,5.74,5.74s5.74-2.57,5.74-5.74-2.57-5.74-5.74-5.74h0Z"/>
    <g class="st30">
      <path class="st5" d="M24,25.21c5.43,0,9.83-4.4,9.83-9.83s-4.4-9.83-9.83-9.83-9.83,4.4-9.83,9.83h0c0,5.43,4.4,9.83,9.83,9.83h0Z"/>
      <path class="st5" d="M24,27.71c-6.56,0-19.67,3.29-19.67,9.83v4.92h39.33v-4.92c0-6.54-13.1-9.83-19.67-9.83h0Z"/>
    </g>
    <path id="BACK" class="st6" d="M-14.95,7.99l-5.09-5.02-28.47,28.1,28.47,28.1,5.09-5.02-23.39-23.07L-14.95,7.99Z"/>
    <path id="HOME" class="st6" d="M19.68,41.02v-10.68c0-.63.51-1.14,1.14-1.14h6.35c.64,0,1.15.52,1.15,1.15v10.66c0,.63.51,1.15,1.15,1.15h8.5c.63,0,1.15-.51,1.15-1.15v-16.13h3.47c1.06,0,1.56-1.31.77-2.02L24.77,6.13c-.43-.39-1.09-.39-1.52,0L4.63,22.88c-.78.71-.28,2.01.77,2.01h3.48v16.14c0,.63.51,1.14,1.14,1.14h8.51c.63,0,1.14-.51,1.14-1.14h.01Z"/>
  </g>
  <g id="_레이어_31" class="st30">
    <path class="st24" d="M24.09,40.74l-2.26-2.05-.03-.02c-9.58-8.69-15.91-14.42-15.91-21.24,0-5.43,4.25-9.68,9.68-9.68,3.01,0,5.99,1.38,7.96,3.7l.55.65.55-.65c1.97-2.32,4.95-3.7,7.96-3.7,5.43,0,9.68,4.25,9.68,9.68,0,6.81-6.31,12.54-15.86,21.22l-.07.07-2.25,2.04v-.02Z"/>
    <path class="st23" d="M24.09,40.74l-2.26-2.05-.03-.02c-9.58-8.69-15.91-14.42-15.91-21.24,0-5.43,4.25-9.68,9.68-9.68,3.01,0,5.99,1.38,7.96,3.7l.55.65.55-.65c1.97-2.32,4.95-3.7,7.96-3.7,5.43,0,9.68,4.25,9.68,9.68,0,6.81-6.31,12.54-15.86,21.22l-.07.07-2.25,2.04v-.02Z"/>
    <g class="st30">
      <path class="st5" d="M23.96,4.77l.02,3c4.44,0,8.61,1.73,11.74,4.88,3.14,3.14,4.86,7.31,4.86,11.75,0,9.15-7.46,16.6-16.63,16.6-2.79,0-5.54-.71-7.98-2.05-1.1-.84-2.45-1.3-3.84-1.3-.48,0-.97.06-1.44.16-.06,0-.12.03-.18.05l-.92.27.36-1.21c.49-1.4.36-2.92-.37-4.18-1.43-2.56-2.22-5.46-2.27-8.34,0-4.44,1.72-8.62,4.86-11.76s7.31-4.88,11.76-4.88v-3M23.96,4.77h-.02C13.1,4.77,4.32,13.57,4.33,24.41c.06,3.44.97,6.8,2.65,9.8.31.54.36,1.19.14,1.77l-1.31,4.4c-.09.28-.09.58.02.85.19.48.65.77,1.14.77.15,0,.3-.03.45-.09l3.96-1.18c.25-.06.5-.09.76-.09.78,0,1.55.28,2.16.79,2.95,1.67,6.27,2.55,9.66,2.55h.02c10.83,0,19.61-8.77,19.61-19.6S34.82,4.76,23.99,4.75h-.02v.02Z"/>
      <path class="st5" d="M33.34,21.92c-1.39,0-2.52,1.12-2.52,2.51s1.12,2.52,2.51,2.52,2.51-1.12,2.52-2.51c0-1.38-1.11-2.51-2.49-2.52h-.02Z"/>
      <path class="st5" d="M23.96,21.92c-1.38,0-2.51,1.11-2.51,2.49h0c0,1.39,1.11,2.52,2.5,2.52s2.52-1.11,2.52-2.5-1.11-2.51-2.49-2.52h-.02Z"/>
      <path class="st5" d="M14.57,21.92c-1.38,0-2.51,1.12-2.51,2.5v.02c0,1.39,1.12,2.51,2.51,2.51s2.51-1.12,2.51-2.51h0c0-1.38-1.11-2.51-2.49-2.52h-.02Z"/>
    </g>
    <g id="_그룹_1349" class="st30">
      <path id="_패스_162" class="st24" d="M41.61,17.96l-10.04-8.79c-.36-.32-.66-.18-.66.3v3.87C4.58,15.24,5.36,35.45,5.87,38.73c.06.36.11.35.15,0,.31-2.37,2.43-11.63,16.55-13.23,2.77-.34,5.58-.28,8.34.19v4.02c0,.48.3.62.66.3l10.04-8.78c.9-.89.91-2.35,0-3.25h0v-.02Z"/>
    </g>
  </g>
  <g id="_레이어_33" class="st30">
    <g>
      <path class="st7" d="M39.39,20.49c-1.94,0-3.51,1.57-3.51,3.5s1.57,3.51,3.5,3.51,3.51-1.57,3.51-3.5c0-1.93-1.54-3.5-3.48-3.52h-.03,0Z"/>
      <path class="st7" d="M24.05,20.5c-1.93,0-3.5,1.55-3.5,3.48h0c0,1.94,1.55,3.51,3.49,3.52s3.51-1.55,3.52-3.49c.01-1.93-1.54-3.5-3.48-3.52h-.03Z"/>
      <path class="st7" d="M8.61,20.49c-1.93,0-3.5,1.56-3.5,3.49v.03c0,1.94,1.57,3.51,3.5,3.51s3.51-1.57,3.51-3.5h0c.01-1.93-1.54-3.51-3.48-3.52h-.03Z"/>
    </g>
    <g class="st30">
      <rect class="st17" x="8.04" y="10.25" width="31.92" height="31.92" rx="3.01" ry="3.01"/>
      <rect class="st42" x="14.29" y="4" width="3.35" height="7.17" rx="1.5" ry="1.5"/>
      <rect class="st42" x="30.41" y="4" width="3.35" height="7.17" rx="1.5" ry="1.5"/>
      <rect class="st42" x="8.84" y="10.91" width="30.32" height="8.98"/>
      <g>
        <path class="st42" d="M32.45,26.99c-1.06,0-1.93.86-1.93,1.93s.86,1.93,1.93,1.93,1.93-.86,1.93-1.92-.85-1.93-1.91-1.93h-.02Z"/>
        <path class="st42" d="M24.03,27c-1.06,0-1.92.85-1.93,1.91h0c0,1.06.85,1.93,1.92,1.94s1.93-.85,1.94-1.92c0-1.06-.85-1.93-1.91-1.93h-.02Z"/>
        <path class="st42" d="M15.54,26.99c-1.06,0-1.92.86-1.92,1.92v.02c0,1.06.86,1.93,1.93,1.93s1.93-.86,1.93-1.93h0c0-1.06-.85-1.93-1.91-1.93h-.03Z"/>
      </g>
    </g>
  </g>
  <g id="_레이어_32">
    <rect class="st13" x="-6" y="-6" width="60" height="60"/>
    <g class="st29">
      <path class="st33" d="M44,4v40H4V4h40M48,0H0v48h48V0h0Z"/>
    </g>
    <g class="st30">
      <path class="st33" d="M47.4.6v46.8H.6V.6h46.8M48,0H0v48h48V0h0Z"/>
    </g>
  </g>
</svg>