<?xml version="1.0" encoding="UTF-8"?>
<svg id="_레이어_1" data-name="레이어_1" xmlns="http://www.w3.org/2000/svg" version="1.1" viewBox="0 0 48 48">
  <!-- Generator: Adobe Illustrator 29.7.1, SVG Export Plug-In . SVG Version: 2.1.1 Build 8)  -->
  <defs>
    <style>
      .st0, .st1 {
        fill: #434343;
      }

      .st1, .st2, .st3, .st4 {
        display: none;
      }

      .st2 {
        opacity: .2;
      }

      .st3 {
        fill: none;
        stroke: #d66e6e;
        stroke-miterlimit: 10;
        stroke-width: 1.2px;
      }

      .st5 {
        fill: #1ecad3;
      }
    </style>
  </defs>
  <g id="_레이어_32">
    <rect class="st3" x="-6" y="-6" width="60" height="60"/>
    <g class="st2">
      <path class="st5" d="M44,4v40H4V4h40M48,0H0v48h48V0h0Z"/>
    </g>
    <g class="st4">
      <path class="st5" d="M47.4.6v46.8H.6V.6h46.8M48,0H0v48h48V0h0Z"/>
    </g>
  </g>
  <g id="_헤더_아이콘">
    <g class="st4">
      <path id="_사각형_2" class="st0" d="M7.24,7.14h33.53c1.59,0,2.87,1.36,2.87,3.03h0c0,1.67-1.29,3.03-2.87,3.03H7.24c-1.59,0-2.87-1.36-2.87-3.03h0c0-1.67,1.29-3.03,2.87-3.03Z"/>
      <path id="_사각형_11" class="st0" d="M6.9,21.32h34.11c1.4,0,2.54,1.2,2.54,2.68h0c0,1.48-1.14,2.68-2.54,2.68H6.9c-1.4,0-2.54-1.2-2.54-2.68h0c0-1.48,1.14-2.68,2.54-2.68Z"/>
      <path id="_사각형_12" class="st0" d="M7.24,34.79h33.53c1.59,0,2.87,1.36,2.87,3.03h0c0,1.67-1.29,3.03-2.87,3.03H7.24c-1.59,0-2.87-1.36-2.87-3.03h0c0-1.67,1.29-3.03,2.87-3.03Z"/>
    </g>
    <path id="_공유" class="st1" d="M35.8,32.09c-1.43,0-2.8.55-3.85,1.51l-14.01-8.15c.11-.45.17-.91.18-1.37,0-.46-.07-.92-.18-1.37l13.85-8.07c2.38,2.21,6.1,2.06,8.31-.32,2.21-2.38,2.06-6.1-.32-8.31s-6.1-2.06-8.31.32c-1.01,1.09-1.57,2.52-1.57,4,0,.46.07.92.18,1.37l-13.85,8.08c-2.38-2.22-6.1-2.09-8.32.28-2.22,2.38-2.09,6.1.28,8.32,2.26,2.11,5.78,2.11,8.04,0l13.99,8.17c-.1.42-.15.85-.16,1.28,0,3.17,2.57,5.74,5.74,5.74s5.74-2.57,5.74-5.74-2.57-5.74-5.74-5.74h0Z"/>
    <g>
      <path class="st0" d="M24,25.21c5.43,0,9.83-4.4,9.83-9.83s-4.4-9.83-9.83-9.83-9.83,4.4-9.83,9.83h0c0,5.43,4.4,9.83,9.83,9.83h0Z"/>
      <path class="st0" d="M24,27.71c-6.56,0-19.67,3.29-19.67,9.83v4.92h39.33v-4.92c0-6.54-13.1-9.83-19.67-9.83h0Z"/>
    </g>
    <path id="BACK" class="st1" d="M-14.95,7.99l-5.09-5.02-28.47,28.1,28.47,28.1,5.09-5.02-23.39-23.07L-14.95,7.99Z"/>
    <path id="HOME" class="st1" d="M19.68,41.02v-10.68c0-.63.51-1.14,1.14-1.14h6.35c.64,0,1.15.52,1.15,1.15v10.66c0,.63.51,1.15,1.15,1.15h8.5c.63,0,1.15-.51,1.15-1.15v-16.13h3.47c1.06,0,1.56-1.31.77-2.02L24.77,6.13c-.43-.39-1.09-.39-1.52,0L4.63,22.88c-.78.71-.28,2.01.77,2.01h3.48v16.14c0,.63.51,1.14,1.14,1.14h8.51c.63,0,1.14-.51,1.14-1.14h.01Z"/>
  </g>
</svg>