<svg xmlns="http://www.w3.org/2000/svg" xmlns:xlink="http://www.w3.org/1999/xlink" viewBox="0 0 48 48"><defs><linearGradient id="_무제_그라디언트_2" x1="-8.19" x2="-8.22" y1="63.33" y2="63.03" data-name="무제 그라디언트 2" gradientTransform="matrix(0 69.4 69.4 0 -4365.11 593)" gradientUnits="userSpaceOnUse"><stop offset="0" stop-color="#1ecad3"/><stop offset=".68" stop-color="#5f9ee6"/><stop offset="1" stop-color="#7d89ef"/></linearGradient><linearGradient id="linear-gradient" x1="22.76" x2="25.04" y1="6.35" y2="6.35" gradientUnits="userSpaceOnUse"><stop offset="0" stop-color="#ffe400"/><stop offset=".36" stop-color="#ffde30"/><stop offset=".81" stop-color="#fac12c"/><stop offset="1" stop-color="#eca63a"/></linearGradient><linearGradient id="White_Black" x1="23.85" x2="23.85" y1="4.61" y2="8.2" data-name="White, Black" gradientUnits="userSpaceOnUse"><stop offset="0" stop-color="#fff"/><stop offset="1" stop-color="#232020"/></linearGradient><linearGradient xlink:href="#linear-gradient" id="linear-gradient1" x1="-681.3" x2="-679.02" y1="-647.82" y2="-647.82" gradientTransform="rotate(41.44 -1191.582 623.121)"/><linearGradient xlink:href="#White_Black" id="White_Black1" x1="-680.2" x2="-680.2" y1="-649.56" y2="-645.97" data-name="White, Black" gradientTransform="rotate(41.44 -1191.582 623.121)"/><linearGradient xlink:href="#linear-gradient" id="linear-gradient2" x1="-2499.98" x2="-2497.7" y1="957.63" y2="957.63" gradientTransform="scale(-1 1)rotate(41.44 -2.607 3766.333)"/><linearGradient xlink:href="#White_Black" id="White_Black2" x1="-2498.89" x2="-2498.89" y1="955.89" y2="959.48" data-name="White, Black" gradientTransform="scale(-1 1)rotate(41.44 -2.607 3766.333)"/><linearGradient id="linear-gradient3" x1="17.88" x2="30.41" y1="35.96" y2="35.96" gradientUnits="userSpaceOnUse"><stop offset=".01" stop-color="#c3c5d2"/><stop offset=".12" stop-color="#fff"/><stop offset=".3" stop-color="#c1c3d1"/><stop offset=".48" stop-color="#b3a1b3"/><stop offset=".95" stop-color="#7e96b0"/></linearGradient><linearGradient xlink:href="#linear-gradient3" id="linear-gradient4" x1="18.41" x2="29.96" y1="40.63" y2="40.63"/><linearGradient xlink:href="#linear-gradient3" id="linear-gradient5" x1="17.87" x2="30.4" y1="38.3" y2="38.3"/><linearGradient id="_무제_그라디언트_8" x1="-404.61" x2="-423.53" y1="58.87" y2="39.95" data-name="무제 그라디언트 8" gradientTransform="matrix(1.36 0 0 -1.36 574.44 86.73)" gradientUnits="userSpaceOnUse"><stop offset="0" stop-color="#00a0ff"/><stop offset="0" stop-color="#00a1ff"/><stop offset=".26" stop-color="#00beff"/><stop offset=".51" stop-color="#00d2ff"/><stop offset=".76" stop-color="#00dfff"/><stop offset="1" stop-color="#00e3ff"/></linearGradient><linearGradient id="_무제_그라디언트_7" x1="-391.05" x2="-418.32" y1="46.15" y2="46.15" data-name="무제 그라디언트 7" gradientTransform="matrix(1.36 0 0 -1.36 574.44 86.73)" gradientUnits="userSpaceOnUse"><stop offset="0" stop-color="#ffe000"/><stop offset=".41" stop-color="#ffbd00"/><stop offset=".78" stop-color="orange"/><stop offset="1" stop-color="#ff9c00"/></linearGradient><linearGradient id="_무제_그라디언트_6" x1="-401.2" x2="-426.85" y1="43.55" y2="17.9" data-name="무제 그라디언트 6" gradientTransform="matrix(1.36 0 0 -1.36 574.44 86.73)" gradientUnits="userSpaceOnUse"><stop offset="0" stop-color="#ff3a44"/><stop offset="1" stop-color="#c31162"/></linearGradient><linearGradient id="_무제_그라디언트_5" x1="-420.96" x2="-409.5" y1="68.48" y2="57.03" data-name="무제 그라디언트 5" gradientTransform="matrix(1.36 0 0 -1.36 574.44 86.73)" gradientUnits="userSpaceOnUse"><stop offset="0" stop-color="#32a071"/><stop offset=".07" stop-color="#2da771"/><stop offset=".48" stop-color="#15cf74"/><stop offset=".8" stop-color="#06e775"/><stop offset="1" stop-color="#00f076"/></linearGradient><linearGradient id="_무제_그라디언트_11" x1="11.41" x2="11.41" y1="-473.13" y2="-473.11" data-name="무제 그라디언트 11" gradientTransform="translate(-18992.22 788557.8)scale(1666.67)" gradientUnits="userSpaceOnUse"><stop offset="0" stop-color="#19e6ff"/><stop offset="1" stop-color="#1e51ee"/></linearGradient><linearGradient id="_무제_그라디언트_32" x1="4.48" x2="43.52" y1="24" y2="24" data-name="무제 그라디언트 32" gradientUnits="userSpaceOnUse"><stop offset="0" stop-color="#8b9ffe"/><stop offset="1" stop-color="#1ecad3"/></linearGradient><linearGradient xlink:href="#_무제_그라디언트_32" id="_무제_그라디언트_321" x1="4.23" x2="43.77" y1="24.69" y2="24.69" data-name="무제 그라디언트 32"/><linearGradient xlink:href="#_무제_그라디언트_32" id="_무제_그라디언트_322" x1="19.35" x2="30.62" y1="27.34" y2="27.34" data-name="무제 그라디언트 32"/><linearGradient xlink:href="#_무제_그라디언트_32" id="_무제_그라디언트_323" x1="4.45" x2="43.55" y1="24" y2="24" data-name="무제 그라디언트 32"/><linearGradient xlink:href="#_무제_그라디언트_32" id="_무제_그라디언트_324" x1="4" x2="44" data-name="무제 그라디언트 32"/><linearGradient id="_무제_그라디언트_56" x1="6.54" x2="41.46" y1="24" y2="24" data-name="무제 그라디언트 56" gradientUnits="userSpaceOnUse"><stop offset="0" stop-color="#1ecad3"/><stop offset="1" stop-color="#8b9ffe"/></linearGradient><linearGradient xlink:href="#_무제_그라디언트_56" id="_무제_그라디언트_561" x1="18.56" x2="31.75" y1="27.11" y2="27.11" data-name="무제 그라디언트 56"/><linearGradient id="_무제_그라디언트_55" x1="7.26" x2="42.04" y1="26.22" y2="26.22" data-name="무제 그라디언트 55" gradientUnits="userSpaceOnUse"><stop offset="0" stop-color="#1ecad3"/><stop offset="1" stop-color="#8b9ffe"/></linearGradient><linearGradient xlink:href="#_무제_그라디언트_55" id="_무제_그라디언트_551" x1="6.66" x2="18.9" y1="10.17" y2="10.17" data-name="무제 그라디언트 55"/><linearGradient xlink:href="#_무제_그라디언트_55" id="_무제_그라디언트_552" x1="31.72" x2="43.96" y1="10.17" y2="10.17" data-name="무제 그라디언트 55"/><linearGradient xlink:href="#_무제_그라디언트_55" id="_무제_그라디언트_553" x1="25.8" x2="42.19" y1="31.87" y2="31.87" data-name="무제 그라디언트 55"/><linearGradient xlink:href="#_무제_그라디언트_55" id="_무제_그라디언트_554" x1="25.8" x2="42.19" y1="18.79" y2="18.79" data-name="무제 그라디언트 55"/><linearGradient xlink:href="#_무제_그라디언트_55" id="_무제_그라디언트_555" x1="42.21" x2="42.22" y1="25.34" y2="25.34" data-name="무제 그라디언트 55"/><linearGradient xlink:href="#_무제_그라디언트_55" id="_무제_그라디언트_556" x1="24.75" x2="36.34" y1="35.33" y2="35.33" data-name="무제 그라디언트 55"/><linearGradient xlink:href="#_무제_그라디언트_55" id="_무제_그라디언트_557" x1="11.67" x2="23.25" y1="15.34" y2="15.34" data-name="무제 그라디언트 55"/><linearGradient xlink:href="#_무제_그라디언트_55" id="_무제_그라디언트_558" x1="11.66" x2="23.25" y1="35.33" y2="35.33" data-name="무제 그라디언트 55"/><linearGradient xlink:href="#_무제_그라디언트_55" id="_무제_그라디언트_559" x1="24.75" x2="36.33" y1="15.34" y2="15.34" data-name="무제 그라디언트 55"/><linearGradient xlink:href="#_무제_그라디언트_55" id="_무제_그라디언트_5510" x1="36.84" x2="36.93" y1="12.46" y2="12.46" data-name="무제 그라디언트 55"/><linearGradient xlink:href="#_무제_그라디언트_55" id="_무제_그라디언트_5511" x1="10.86" x2="11.39" y1="38.22" y2="38.22" data-name="무제 그라디언트 55"/><linearGradient xlink:href="#_무제_그라디언트_55" id="_무제_그라디언트_5512" x1="11.07" x2="11.16" y1="12.46" y2="12.46" data-name="무제 그라디언트 55"/><linearGradient xlink:href="#_무제_그라디언트_55" id="_무제_그라디언트_5513" x1="36.61" x2="37.14" y1="38.22" y2="38.22" data-name="무제 그라디언트 55"/><linearGradient xlink:href="#_무제_그라디언트_55" id="_무제_그라디언트_5514" x1="5.81" x2="22.2" y1="31.87" y2="31.87" data-name="무제 그라디언트 55"/><linearGradient xlink:href="#_무제_그라디언트_55" id="_무제_그라디언트_5515" x1="5.78" x2="5.79" y1="25.34" y2="25.34" data-name="무제 그라디언트 55"/><linearGradient xlink:href="#_무제_그라디언트_55" id="_무제_그라디언트_5516" x1="5.81" x2="22.2" y1="18.79" y2="18.79" data-name="무제 그라디언트 55"/><linearGradient xlink:href="#_무제_그라디언트_55" id="_무제_그라디언트_5517" x1="20.32" x2="27.68" y1="25.34" y2="25.34" data-name="무제 그라디언트 55"/><linearGradient xlink:href="#_무제_그라디언트_55" id="_무제_그라디언트_5518" x1="29.61" x2="18.39" y1="9.2" y2="9.2" data-name="무제 그라디언트 55"/><linearGradient xlink:href="#_무제_그라디언트_56" id="_무제_그라디언트_562" x1="5.74" x2="42.26" data-name="무제 그라디언트 56"/><linearGradient xlink:href="#_무제_그라디언트_32" id="_무제_그라디언트_325" x1="4" x2="44" data-name="무제 그라디언트 32"/><linearGradient id="_무제_그라디언트_58" x1="4.06" x2="43.94" y1="24" y2="24" data-name="무제 그라디언트 58" gradientUnits="userSpaceOnUse"><stop offset="0" stop-color="#8b9ffe"/><stop offset="1" stop-color="#1ecad3"/></linearGradient><linearGradient xlink:href="#_무제_그라디언트_58" id="_무제_그라디언트_581" x1="19.31" x2="30.67" y1="23.85" y2="23.85" data-name="무제 그라디언트 58"/><linearGradient xlink:href="#_무제_그라디언트_32" id="_무제_그라디언트_326" x1="4" x2="44" data-name="무제 그라디언트 32"/><linearGradient xlink:href="#_무제_그라디언트_32" id="_무제_그라디언트_327" x1="22.66" x2="38.46" y1="29.51" y2="29.51" data-name="무제 그라디언트 32"/><linearGradient xlink:href="#_무제_그라디언트_32" id="_무제_그라디언트_328" x1="4" x2="44" data-name="무제 그라디언트 32"/><linearGradient xlink:href="#_무제_그라디언트_32" id="_무제_그라디언트_329" x1="4.05" x2="43.95" data-name="무제 그라디언트 32"/><linearGradient id="_무제_그라디언트_9" x1="3.86" x2="44.14" y1="24" y2="24" data-name="무제 그라디언트 9" gradientUnits="userSpaceOnUse"><stop offset="0" stop-color="#8b9ffe"/><stop offset="1" stop-color="#1ecad3"/></linearGradient><linearGradient xlink:href="#_무제_그라디언트_9" id="_무제_그라디언트_91" x1="3.99" x2="40.41" y1="25.6" y2="25.6" data-name="무제 그라디언트 9"/><linearGradient xlink:href="#_무제_그라디언트_58" id="_무제_그라디언트_582" x1="28.2" x2="37.59" y1="31.68" y2="31.68" data-name="무제 그라디언트 58"/><linearGradient xlink:href="#_무제_그라디언트_55" id="_무제_그라디언트_5519" x1="4" x2="44" y1="24" y2="24" data-name="무제 그라디언트 55"/><linearGradient xlink:href="#_무제_그라디언트_32" id="_무제_그라디언트_3210" x1="4.05" x2="43.95" data-name="무제 그라디언트 32"/><linearGradient xlink:href="#_무제_그라디언트_55" id="_무제_그라디언트_5520" x1="18.14" x2="43.68" y1="29.95" y2="29.95" data-name="무제 그라디언트 55"/><linearGradient id="_무제_그라디언트_3" x1="9.22" x2="38.78" y1="24.97" y2="24.97" data-name="무제 그라디언트 3" gradientUnits="userSpaceOnUse"><stop offset="0" stop-color="#1ecad3"/><stop offset="1" stop-color="#8b9ffe"/></linearGradient><linearGradient xlink:href="#_무제_그라디언트_3" id="_무제_그라디언트_31" x1="9.22" x2="38.78" y1="13.15" y2="13.15" data-name="무제 그라디언트 3"/><linearGradient xlink:href="#_무제_그라디언트_3" id="_무제_그라디언트_33" x1="16.56" x2="31.44" y1="7.2" y2="7.2" data-name="무제 그라디언트 3"/><linearGradient xlink:href="#_무제_그라디언트_3" id="_무제_그라디언트_34" x1="11.55" x2="36.45" y1="28.08" y2="28.08" data-name="무제 그라디언트 3"/><linearGradient xlink:href="#_무제_그라디언트_3" id="_무제_그라디언트_35" x1="20.54" x2="42.42" y1="19.29" y2="19.29" data-name="무제 그라디언트 3"/><linearGradient xlink:href="#_무제_그라디언트_3" id="_무제_그라디언트_36" x1="10.56" x2="30.67" y1="24" y2="24" data-name="무제 그라디언트 3"/><linearGradient xlink:href="#_무제_그라디언트_3" id="_무제_그라디언트_37" x1="4" x2="37.24" y1="24" y2="24" data-name="무제 그라디언트 3"/><linearGradient xlink:href="#_무제_그라디언트_3" id="_무제_그라디언트_38" x1="37.06" x2="44" y1="17.25" y2="17.25" data-name="무제 그라디언트 3"/><linearGradient xlink:href="#_무제_그라디언트_3" id="_무제_그라디언트_39" x1="36.6" x2="42.27" y1="14.41" y2="14.41" data-name="무제 그라디언트 3"/><linearGradient xlink:href="#_무제_그라디언트_3" id="_무제_그라디언트_310" x1="17.5" x2="24.63" y1="24" y2="24" data-name="무제 그라디언트 3"/><linearGradient id="_무제_그라디언트_10" x1="4" x2="44" y1="24" y2="24" data-name="무제 그라디언트 10" gradientUnits="userSpaceOnUse"><stop offset="0" stop-color="#1ecad3"/><stop offset="1" stop-color="#8b9ffe"/></linearGradient><linearGradient xlink:href="#_무제_그라디언트_10" id="_무제_그라디언트_101" x1="5.93" x2="44.33" y1="24" y2="24" data-name="무제 그라디언트 10"/><linearGradient xlink:href="#_무제_그라디언트_10" id="_무제_그라디언트_102" x1="20.48" x2="28.95" y1="29.17" y2="34.06" data-name="무제 그라디언트 10"/><linearGradient xlink:href="#_무제_그라디언트_10" id="_무제_그라디언트_103" x1="9.2" x2="24.95" y1="35.28" y2="35.28" data-name="무제 그라디언트 10"/><linearGradient xlink:href="#_무제_그라디언트_10" id="_무제_그라디언트_104" x1="22.78" x2="38.57" y1="35.23" y2="35.23" data-name="무제 그라디언트 10"/><linearGradient xlink:href="#_무제_그라디언트_10" id="_무제_그라디언트_105" x1="8.84" x2="38.73" y1="19.97" y2="19.97" data-name="무제 그라디언트 10"/><linearGradient xlink:href="#_무제_그라디언트_10" id="_무제_그라디언트_106" x1="4" x2="44" y1="25.96" y2="25.96" data-name="무제 그라디언트 10"/><linearGradient xlink:href="#_무제_그라디언트_10" id="_무제_그라디언트_107" x1="16.38" x2="30.25" y1="8.6" y2="16.6" data-name="무제 그라디언트 10"/><clipPath id="clippath"><path d="M5.11 4.31h37.78V43.7H5.11z" class="st36"/></clipPath><clipPath id="clippath-1"><path d="M4.68 4.44h38.64v39.12H4.68z" class="st36"/></clipPath><clipPath id="clippath-2"><path d="M4.22 4.22h39.57v39.57H4.22z" class="st36"/></clipPath><clipPath id="clippath-3"><path d="M6.649 39.828 16.6 2.709l26.88 7.208-9.952 37.118z" class="st36"/></clipPath><clipPath id="clippath-4"><path d="M25.66 5.14a8.744 8.744 0 1 0-4.529 16.892A8.744 8.744 0 0 0 25.66 5.14" class="st36"/></clipPath><clipPath id="clippath-5"><path d="M25.66 5.14a8.744 8.744 0 1 0-4.529 16.892A8.744 8.744 0 0 0 25.66 5.14" class="st36"/></clipPath><clipPath id="clippath-6"><path d="M3.36 4.33h38.02v39.33H3.36z" class="st36"/></clipPath><clipPath id="clippath-7"><path d="m22.35 10.23-11.4 31.11c-.33.9.13 1.89 1.03 2.22.19.07.4.11.6.11h22.8c.96 0 1.73-.78 1.73-1.73 0-.2-.04-.4-.11-.6L25.6 10.23c-.33-.9-1.32-1.36-2.22-1.03-.48.18-.85.55-1.03 1.03" class="st36"/></clipPath><clipPath id="clippath-8"><path id="_패스_3262" d="M22.37 10.23 10.98 41.34c-.33.9.13 1.89 1.03 2.22.19.07.39.11.6.11H35.4c.96 0 1.73-.77 1.74-1.73 0-.2-.04-.41-.11-.6l-11.4-31.11c-.33-.9-1.32-1.36-2.22-1.03-.48.18-.85.55-1.03 1.03" class="st36" data-name="패스_326"/></clipPath><clipPath id="clippath-9"><path d="M4.36 15.7h39.27v16.6H4.36z" class="st36"/></clipPath><clipPath id="clippath-10"><path d="M4.27 15.25h39.47v17.5H4.27z" class="st36"/></clipPath><clipPath id="clippath-11"><path d="M4.42 8.08h39.15v28.58H4.42z" class="st36"/></clipPath><clipPath id="clippath-12"><path d="M5.6 4.68h36.8v38.64H5.6z" class="st36"/></clipPath><clipPath id="clippath-13"><path d="M4.37 5.23h39.26v37.54H4.37z" class="st36"/></clipPath><clipPath id="clippath-14"><path d="M.99 32.87 11.19-.474l35 10.707-10.201 33.344z" class="st36"/></clipPath><clipPath id="clippath-15"><path d="M5 8.82h38v30.37H5z" class="st36"/></clipPath><clipPath id="clippath-16"><path d="M5 5.9h38v36.2H5z" class="st36"/></clipPath><clipPath id="clippath-17"><path d="M5 8.82h38v30.37H5z" class="st36"/></clipPath><clipPath id="clippath-18"><path d="M8.62 12.96h30.75v24.58H8.62z" class="st36"/></clipPath><clipPath id="clippath-19"><path d="M5 5.9h38v36.2H5z" class="st36"/></clipPath><clipPath id="clippath-20"><path d="m-59.327 43.433 3.587-20.346 16.565 2.921-3.588 20.346z" class="st36"/></clipPath><clipPath id="clippath-21"><path d="M25.7 24.99h10.42v9.93H25.7z" class="st36"/></clipPath><clipPath id="clippath-22"><path d="M9.49 19.51h12.48v9.97H9.49z" class="st36"/></clipPath><clipPath id="clippath-23"><path d="m10.474 33.196 3.903-3.918 3.734 3.72-3.903 3.917z" class="st36"/></clipPath><radialGradient id="radial-gradient" cx="23.01" cy="39.99" r="4.92" fx="23.01" fy="39.99" gradientUnits="userSpaceOnUse"><stop offset=".01" stop-color="#c3c5d2"/><stop offset=".12" stop-color="#fff"/><stop offset=".3" stop-color="#c1c3d1"/><stop offset=".48" stop-color="#b3a1b3"/><stop offset=".95" stop-color="#7e96b0"/></radialGradient><radialGradient id="radial-gradient1" cx="22.16" cy="19.71" r="13.86" fx="22.16" fy="19.71" gradientUnits="userSpaceOnUse"><stop offset="0" stop-color="#ffe400"/><stop offset=".36" stop-color="#ffde30"/><stop offset=".81" stop-color="#fac12c"/><stop offset="1" stop-color="#eca63a"/></radialGradient><filter id="drop-shadow-1" width="40" height="40" x="4" y="4" filterUnits="userSpaceOnUse"><feOffset dx="1" dy="1"/><feGaussianBlur result="blur" stdDeviation="1"/><feFlood flood-color="#000" flood-opacity=".1"/><feComposite in2="blur" operator="in"/><feComposite in="SourceGraphic"/></filter><style>.st3,.st4{fill:#f8b805}.st11{fill:#8b9ffe}.st17,.st20,.st24,.st25,.st4{opacity:.5}.st17{mix-blend-mode:screen}.st26,.st27{fill:#434343}.st28{fill:#ffda44}.st29{stroke-width:.7px}.st29,.st31,.st34,.st35,.st36,.st38,.st40,.st41{fill:none}.st29,.st31,.st41,.st50{stroke:#fff}.st29,.st34,.st35,.st38,.st40,.st41,.st51{stroke-linecap:round;stroke-linejoin:round}.st27,.st34,.st40,.st41,.st52,.st53,.st54,.st55,.st56,.st58,.st59,.st60,.st61{display:none}.st38,.st40{stroke-width:3px}.st51,.st52,.st64,.st65{fill:#1ecad3}.st31{stroke-dasharray:1.02 1.02 1.02 1.02 1.02 1.02;stroke-width:.2px}.st31,.st64{stroke-miterlimit:10}.st79{fill:#7f6154}.st80{fill:#6d8294}.st83{fill:#bababa}.st50,.st53,.st84{fill:#fff}.st86{fill:#25a5a5}.st20,.st89{fill:#ea6c3b}.st34{stroke:#232323}.st34,.st41{stroke-width:2px}.st35,.st51,.st64{stroke:#1ecad3}.st24,.st94{fill:#c2d0d3}.st38,.st40{stroke:#434343}.st99{fill:url(#_무제_그라디언트_58)}.st100{fill:#64c37d}.st103{fill:#9178e0}.st106{fill:#f7aed1}.st116{isolation:isolate}.st125,.st20,.st24,.st25,.st4{mix-blend-mode:multiply}.st126{fill:#fff800}.st129{fill:#00d7df}.st131{fill:#ea348b}.st50{fill-rule:evenodd;stroke-miterlimit:4;stroke-width:1px}.st125{opacity:.3}.st125,.st25{fill:#1bafdd}.st135,.st54{fill:#d2d2d2}.st137{fill:#ffe600}.st141{fill:#91dc5a}.st143,.st55{fill:#232323}.st144{fill:#ff9811}.st145,.st56{fill:#f5f5f5}.st147{fill:#7c84e8}.st149{fill:#616cbc}.st154{fill:#73bcbc}.st155{fill:#bf7822}.st58{fill:#9b7676}.st163{fill:#d8cf25}.st164{fill:#ccc}.st165{fill:#ef2b2a}.st167{fill:#599e69}.st168{fill:#99eff2}.st170{fill:#139e9e}.st173,.st61{fill:#979797}.st179{fill:#dadada}.st180{fill:#933ec5}.st185,.st60{fill:#707070}</style><mask id="mask" width="40" height="40" x="4" y="4" maskUnits="userSpaceOnUse"><path id="c" d="M30.04 4c4 0 6 0 8.18.67a8.4 8.4 0 0 1 5.07 5.07c.71 2.18.71 4.22.71 8.22v12.09c0 4 0 6-.67 8.18a8.4 8.4 0 0 1-5.07 5.07c-2.22.71-4.22.71-8.22.71H17.95c-4 0-6 0-8.18-.67a8.55 8.55 0 0 1-5.11-5.11c-.67-2.13-.67-4.13-.67-8.18V17.96c0-4 0-6 .67-8.18.89-2.36 2.71-4.22 5.11-5.07C11.9 4 13.9 4 17.95 4z" class="st84"/></mask></defs><g class="st116"><g id="Icon1" data-name="Icon"><g id="_프로필_없을때1" data-name="프로필_없을때"><g id="_레이어_46_사본_21" data-name="레이어_46_사본_2"><circle cx="24.05" cy="24.05" r="24" class="st135"/><path d="M24 0C10.75 0 0 10.75 0 24c0 6.49 2.59 12.37 6.78 16.7a18.52 18.52 0 0 1 13.13-12.95c-2.97-1.65-4.99-4.82-4.99-8.46 0-5.34 4.33-9.67 9.67-9.67s9.67 4.33 9.67 9.67c0 3.65-2.02 6.82-5 8.46 6.15 1.6 10.88 6.2 12.84 11.96 3.66-4.21 5.88-9.69 5.88-15.71C48 10.75 37.25 0 24 0" class="st36"/><path d="M27.18 27.32c.72.1 1.41.25 2.1.43 2.98-1.65 5-4.82 5-8.46 0-5.34-4.33-9.67-9.67-9.67s-9.67 4.33-9.67 9.67c0 3.64 2.01 6.81 4.99 8.46 2.3-.6 4.76-.77 7.26-.42Z" class="st173"/><path d="M29.32 27.75c-.68-.18-1.38-.33-2.1-.43-2.5-.35-4.96-.18-7.26.42-6.25 1.64-11.35 6.51-13.13 12.95 4.36 4.5 10.46 7.3 17.22 7.3 7.24 0 13.72-3.22 18.12-8.29-1.96-5.76-6.7-10.36-12.84-11.96Z" class="st173"/></g></g></g></g></svg>