<svg xmlns="http://www.w3.org/2000/svg" id="_레이어_1" data-name="레이어_1" version="1.1" viewBox="0 0 48 48"><defs><clipPath id="clippath"><path d="M5.11 4.31h37.78V43.7H5.11z" class="st25"/></clipPath><clipPath id="clippath-1"><path d="M4.68 4.44h38.64v39.12H4.68z" class="st25"/></clipPath><clipPath id="clippath-2"><path d="M4.22 4.22h39.57v39.57H4.22z" class="st25"/></clipPath><clipPath id="clippath-3"><path d="M6.651 39.828 16.604 2.71l26.88 7.208-9.952 37.119z" class="st25"/></clipPath><clipPath id="clippath-4"><path d="M25.66 5.14a8.744 8.744 0 1 0-4.529 16.892A8.744 8.744 0 0 0 25.66 5.14" class="st25"/></clipPath><clipPath id="clippath-5"><path d="M25.66 5.14a8.744 8.744 0 1 0-4.529 16.892A8.744 8.744 0 0 0 25.66 5.14" class="st25"/></clipPath><clipPath id="clippath-6"><path d="M3.36 4.33h38.02v39.33H3.36z" class="st25"/></clipPath><clipPath id="clippath-7"><path d="m22.35 10.23-11.4 31.11c-.33.9.13 1.89 1.03 2.22.19.07.4.11.6.11h22.8c.96 0 1.73-.78 1.73-1.73 0-.2-.04-.4-.11-.6L25.6 10.23c-.33-.9-1.32-1.36-2.22-1.03-.48.18-.85.55-1.03 1.03" class="st25"/></clipPath><clipPath id="clippath-8"><path d="M22.37 10.23 10.98 41.34c-.33.9.13 1.89 1.03 2.22.19.07.39.11.6.11H35.4c.96 0 1.73-.77 1.74-1.73 0-.2-.04-.41-.11-.6l-11.4-31.11c-.33-.9-1.32-1.36-2.22-1.03-.48.18-.85.55-1.03 1.03z" class="st25"/></clipPath><clipPath id="clippath-9"><path d="M4.36 15.7h39.27v16.6H4.36z" class="st25"/></clipPath><clipPath id="clippath-10"><path d="M4.27 15.25h39.47v17.5H4.27z" class="st25"/></clipPath><clipPath id="clippath-11"><path d="M4.42 8.08h39.15v28.58H4.42z" class="st25"/></clipPath><clipPath id="clippath-12"><path d="M5.6 4.68h36.8v38.64H5.6z" class="st25"/></clipPath><clipPath id="clippath-13"><path d="M4.37 5.23h39.26v37.54H4.37z" class="st25"/></clipPath><clipPath id="clippath-14"><path d="m.987 32.87 10.2-33.345 35 10.707-10.201 33.345z" class="st25"/></clipPath><clipPath id="clippath-15"><path d="M4.5 9.52h39v28.96h-39z" class="st25"/></clipPath><clipPath id="clippath-16"><path d="M5 8.82h38v30.37H5z" class="st25"/></clipPath><clipPath id="clippath-17"><path d="M5 5.9h38v36.2H5z" class="st25"/></clipPath><linearGradient id="_무제_그라디언트" x1="-282.55" x2="-282.58" y1="358.59" y2="358.89" data-name="무제 그라디언트" gradientTransform="rotate(90 2641.285 22274.645)scale(69.4)" gradientUnits="userSpaceOnUse"><stop offset="0" stop-color="#1ecad3"/><stop offset=".68" stop-color="#5f9ee6"/><stop offset="1" stop-color="#7d89ef"/></linearGradient><style>.st2{fill:#8b9ffe}.st6,.st8,.st9{fill:#434343}.st10{fill:#ffda44}.st16,.st18{stroke-linejoin:round;stroke-linecap:round}.st16,.st20,.st9{stroke:#434343}.st18,.st24,.st25,.st30,.st31,.st32{fill:none}.st24,.st30,.st31,.st32{stroke-miterlimit:10}.st16,.st18,.st20,.st24,.st32{stroke-width:3px}.st37{fill:#bababa}.st16,.st20,.st38{fill:#fff}.st39{fill:#25a5a5}.st41,.st43,.st44,.st8{display:none}.st18,.st24,.st30{stroke:#1ecad3}.st46{fill:#64c37d}.st47{fill:#9178e0}.st48{fill:#f7aed1}.st49{fill:#1ecad3}.st52{fill:#fff800}.st55{fill:#00d7df}.st56{fill:#ea348b}.st41,.st58{fill:#d2d2d2}.st60{fill:#91dc5a}.st62{fill:#232323}.st63{fill:#ff9811}.st31{stroke:#dadada}.st64{fill:#7c84e8}.st65{fill:#616cbc}.st66{fill:#73bcbc}.st67{fill:#bf7822}.st30{stroke-width:2.92px}.st9{stroke-width:1.84px}.st68{fill:#d8cf25}.st70{fill:#599e69}.st71{fill:#99eff2}.st44,.st72{fill:#979797}.st75{fill:#dadada}.st76{fill:#933ec5}.st31{stroke-width:1.57px}.st32{stroke:#bababa}.st79{fill:#707070}</style></defs><g id="Icon"><g id="_팬버십" style="clip-path:url(#clippath-16)"><g id="_그룹_1599"><path id="_패스_369" d="m26.8 21.23 2.96-3.83c-1.65-.45-3.4-.19-4.85.72l-.1-.1c.78-2.3.15-4.84-1.61-6.51-3.61-3.61-7.75-1.54-11.63 2.34l-6.56 6.56 18.77 18.77 7.09-7.09c1.16-1.14 2.15-2.44 2.91-3.88l-6.98-6.99Zm-9.84 2.11-4.02-4.01 1.87-1.87c1.89-1.89 3.33-2.22 4.67-.88 1.29 1.29 1.26 2.98-.66 4.9l-1.86 1.87Zm10.12 5.63-2.25 2.24-4.54-4.54 2.24-2.24c2.2-2.2 3.89-2.67 5.42-1.14 1.62 1.61 1.29 3.51-.88 5.68" class="st49"/><path id="_패스_370" d="M39.26 24.56 43 20.82l-12-12-18.8 18.79 4.52 4.52 7.18-7.18 6.42 6.42.63.64c1.3-1.27 2.36-2.76 3.14-4.4l-6.42-6.42 4.12-4.12 7.48 7.48h-.01Z" class="st47"/></g></g></g></svg>