<?xml version="1.0" encoding="UTF-8"?>
<svg id="_레이어_1" data-name="레이어_1" xmlns="http://www.w3.org/2000/svg" version="1.1" xmlns:xlink="http://www.w3.org/1999/xlink" viewBox="0 0 48 48">
  <!-- Generator: Adobe Illustrator 29.8.3, SVG Export Plug-In . SVG Version: 2.1.1 Build 3)  -->
  <defs>
    <style>
      .st0 {
        clip-path: url(#clippath-21);
      }

      .st1 {
        clip-path: url(#clippath-6);
      }

      .st2 {
        clip-path: url(#clippath-7);
      }

      .st3 {
        clip-path: url(#clippath-17);
      }

      .st4 {
        clip-path: url(#clippath-15);
      }

      .st5 {
        clip-path: url(#clippath-18);
      }

      .st6 {
        clip-path: url(#clippath-4);
      }

      .st7, .st8, .st9, .st10, .st11 {
        display: none;
      }

      .st7, .st12 {
        fill: #0866ff;
      }

      .st13 {
        stroke-width: 3.1px;
      }

      .st13, .st14, .st15, .st16, .st17, .st18 {
        fill: none;
      }

      .st13, .st15, .st16, .st17 {
        stroke-linecap: round;
        stroke-linejoin: round;
      }

      .st13, .st15, .st17 {
        stroke: #979797;
      }

      .st19 {
        clip-path: url(#clippath-9);
      }

      .st20 {
        clip-path: url(#clippath-10);
      }

      .st21, .st8 {
        fill: #fff;
      }

      .st22 {
        fill: #fbbc04;
      }

      .st23 {
        fill: #4285f4;
      }

      .st24 {
        clip-path: url(#clippath-11);
      }

      .st25 {
        opacity: .2;
      }

      .st26 {
        fill: #3c1e1e;
      }

      .st27 {
        fill: red;
      }

      .st28 {
        fill: #34a853;
      }

      .st29 {
        clip-path: url(#clippath-1);
      }

      .st30 {
        fill: #f2f2f2;
      }

      .st15 {
        stroke-width: 2.6px;
      }

      .st31 {
        fill: #3b1a1c;
      }

      .st32 {
        clip-path: url(#clippath-5);
      }

      .st33 {
        clip-path: url(#clippath-20);
      }

      .st34 {
        clip-path: url(#clippath-8);
      }

      .st35 {
        clip-path: url(#clippath-3);
      }

      .st9, .st36 {
        fill: #d2d2d2;
      }

      .st37 {
        clip-path: url(#clippath-12);
      }

      .st38 {
        clip-path: url(#clippath-14);
      }

      .st39 {
        clip-path: url(#clippath-19);
      }

      .st16 {
        stroke: #fff;
        stroke-width: 2.7px;
      }

      .st17 {
        stroke-width: 3px;
      }

      .st40 {
        isolation: isolate;
        opacity: .3;
      }

      .st41, .st11 {
        fill: #fdde00;
      }

      .st42 {
        fill: #03c75a;
      }

      .st43 {
        fill: #1ecad3;
      }

      .st18 {
        stroke: #d66e6e;
        stroke-miterlimit: 10;
        stroke-width: 1.2px;
      }

      .st44 {
        fill: #979797;
      }

      .st45 {
        clip-path: url(#clippath-16);
      }

      .st46 {
        fill: #06c755;
      }

      .st47 {
        clip-path: url(#clippath-2);
      }

      .st48 {
        clip-path: url(#clippath-13);
      }

      .st49 {
        fill: #e94235;
      }

      .st50 {
        clip-path: url(#clippath);
      }
    </style>
    <clipPath id="clippath">
      <path class="st14" d="M38.4,23c0-6.3-6.5-11.5-14.4-11.5s-14.4,5.2-14.4,11.5,5.1,10.4,12.1,11.3c.5,0,1.1.3,1.3.7.1.4.1.9,0,1.3,0,0-.2,1-.2,1.2,0,.4-.3,1.4,1.2.8,1.5-.6,8.3-4.8,11.3-8.2,2.1-2.2,3.1-4.5,3.1-7.1h0Z"/>
    </clipPath>
    <clipPath id="clippath-1">
      <rect class="st14" x="-305.2" y="-958.7" width="1030.9" height="2702.4"/>
    </clipPath>
    <clipPath id="clippath-2">
      <path class="st14" d="M33.6,21.8c.2,0,.3-.1.3-.3v-1c0-.2-.1-.3-.3-.3h-4.1c0,0-.1,0-.2,0,0,0,0,.1,0,.2v6c0,0,0,.1,0,.2s.1,0,.2,0h4.1c.2,0,.3-.1.3-.3v-1c0-.2-.1-.3-.3-.3h-2.8v-1h2.8c.2,0,.3-.1.3-.3v-1c0-.2-.1-.3-.3-.3h-2.8v-1h2.8Z"/>
    </clipPath>
    <clipPath id="clippath-3">
      <rect class="st14" x="-305.2" y="-958.7" width="1030.9" height="2702.4"/>
    </clipPath>
    <clipPath id="clippath-4">
      <path class="st14" d="M28.2,20.3h-1c-.1,0-.3.1-.3.3v3.6l-2.9-3.7s0,0,0,0h0s0,0,0,0h-1.1c-.1,0-.3.1-.3.3v6c0,.1.1.3.3.3h1c.1,0,.3-.1.3-.3v-3.6l2.9,3.7s0,0,0,0c0,0,0,0,0,0h1.1c.1,0,.3-.1.3-.3v-6c0-.2-.1-.3-.3-.3h0Z"/>
    </clipPath>
    <clipPath id="clippath-5">
      <rect class="st14" x="-305.2" y="-958.7" width="1030.9" height="2702.4"/>
    </clipPath>
    <clipPath id="clippath-6">
      <path class="st14" d="M21.2,20.3h-1.1c-.2,0-.3.1-.3.3v6c0,.1.1.3.3.3h1.1c.2,0,.3-.1.3-.3v-6c0-.2-.1-.3-.3-.3Z"/>
    </clipPath>
    <clipPath id="clippath-7">
      <rect class="st14" x="-305.2" y="-958.7" width="1030.9" height="2702.4"/>
    </clipPath>
    <clipPath id="clippath-8">
      <path class="st14" d="M18.7,25.3h-2.8v-4.8c0-.1-.1-.3-.3-.3h-1c-.2,0-.3.1-.3.3v6c0,0,0,.1,0,.2s.1,0,.2,0h4.1c.2,0,.3-.1.3-.3v-1c0-.2-.1-.3-.3-.3h0Z"/>
    </clipPath>
    <clipPath id="clippath-9">
      <rect class="st14" x="-305.2" y="-958.7" width="1030.9" height="2702.4"/>
    </clipPath>
    <clipPath id="clippath-10">
      <rect class="st14" x="12" y="12" width="24" height="24"/>
    </clipPath>
    <clipPath id="clippath-11">
      <path class="st14" d="M37.9,23.1c0-6.1-6.2-11.1-13.9-11.1s-13.9,5-13.9,11.1,4.9,10.1,11.6,10.9c.5.1,1.1.3,1.2.7.1.4,0,.9,0,1.2,0,0-.2,1-.2,1.2,0,.3-.3,1.3,1.2.7,1.5-.6,8-4.6,10.9-7.9,2-2.2,3-4.4,3-6.8h0Z"/>
    </clipPath>
    <clipPath id="clippath-12">
      <rect class="st14" x="-293" y="-922.2" width="992.7" height="2602.4"/>
    </clipPath>
    <clipPath id="clippath-13">
      <path class="st14" d="M33.2,21.9c.2,0,.3-.1.3-.3v-.9c0-.1-.1-.3-.3-.3h-4c0,0-.1,0-.2,0,0,0,0,.1,0,.2v5.8c0,0,0,.1,0,.2,0,0,.1,0,.2,0h4c.2,0,.3-.1.3-.3v-.9c0-.1-.1-.3-.3-.3h-2.7v-1h2.7c.2,0,.3-.1.3-.3v-.9c0-.1-.1-.3-.3-.3h-2.7v-1h2.7Z"/>
    </clipPath>
    <clipPath id="clippath-14">
      <rect class="st14" x="-293" y="-922.2" width="992.7" height="2602.4"/>
    </clipPath>
    <clipPath id="clippath-15">
      <path class="st14" d="M28,20.4h-1c-.1,0-.3.1-.3.3v3.4l-2.8-3.6s0,0,0,0h0s0,0,0,0h-1.1c-.1,0-.3.1-.3.3v5.8c0,.1.1.3.3.3h1c.1,0,.3-.1.3-.3v-3.4l2.8,3.6s0,0,0,0h1.1c.1,0,.3-.1.3-.3v-5.8c0-.1-.1-.3-.3-.3h0Z"/>
    </clipPath>
    <clipPath id="clippath-16">
      <rect class="st14" x="-293" y="-922.2" width="992.7" height="2602.4"/>
    </clipPath>
    <clipPath id="clippath-17">
      <path class="st14" d="M21.3,20.4h-1.1c-.2,0-.3.1-.3.3v5.8c0,.1.1.3.3.3h1.1c.2,0,.3-.1.3-.3v-5.8c0-.1-.1-.3-.3-.3Z"/>
    </clipPath>
    <clipPath id="clippath-18">
      <rect class="st14" x="-293" y="-922.2" width="992.7" height="2602.4"/>
    </clipPath>
    <clipPath id="clippath-19">
      <path class="st14" d="M18.9,25.3h-2.7v-4.6c0-.1-.1-.3-.3-.3h-1c-.1,0-.3.1-.3.3v5.8c0,0,0,.1,0,.2,0,0,.1,0,.2,0h4c.1,0,.3-.1.3-.3v-.9c0-.1-.1-.3-.3-.3h0Z"/>
    </clipPath>
    <clipPath id="clippath-20">
      <rect class="st14" x="-293" y="-922.2" width="992.7" height="2602.4"/>
    </clipPath>
    <clipPath id="clippath-21">
      <rect class="st14" x="12" y="12" width="24" height="24"/>
    </clipPath>
  </defs>
  <g id="_안내선" class="st10">
    <rect class="st18" x="-6" y="-6" width="60" height="60"/>
    <g class="st25">
      <path class="st43" d="M44,4v40H4V4h40M48,0H0v48h48V0h0Z"/>
    </g>
    <path class="st43" d="M47.4.6v46.8H.6V.6h46.8M48,0H0v48h48V0h0Z"/>
  </g>
  <g id="sns_x28_수정후_x29_0915" class="st10">
    <g id="_x30_1카카오">
      <circle class="st41" cx="24" cy="24" r="24"/>
      <g id="_새거">
        <path class="st26" d="M38.2,23.1c0,6.1-6.3,11.1-14.1,11.1s-6-.8-8.3-2.1c-3.5-2-5.8-5.3-5.8-9,0-6.1,6.3-11.1,14.1-11.1s14.1,5,14.1,11.1Z"/>
        <path class="st26" d="M15.8,38.5l6.2-4.5,2.3-7.1h-5.8l-2.6,5-1,6.1c0,.5.5.8.8.5h0Z"/>
      </g>
    </g>
    <g id="_x30_2네이버" class="st10">
      <path class="st42" d="M24,0h0C37.3,0,48,10.7,48,24h0c0,13.3-10.7,24-24,24h0C10.7,48,0,37.3,0,24h0C0,10.7,10.7,0,24,0Z"/>
      <polygon class="st21" points="27.6 24.7 20.1 14 13.9 14 13.9 34 20.4 34 20.4 23.3 27.9 34 34.1 34 34.1 14 27.6 14 27.6 24.7"/>
    </g>
    <g id="_x30_3라인" class="st10">
      <path class="st42" d="M24,0h0C37.3,0,48,10.7,48,24h0c0,13.3-10.7,24-24,24h0C10.7,48,0,37.3,0,24h0C0,10.7,10.7,0,24,0Z"/>
      <g>
        <g class="st50">
          <g class="st29">
            <rect class="st21" x="6.5" y="8.4" width="35" height="33.1"/>
          </g>
        </g>
        <g class="st47">
          <g class="st35">
            <rect class="st46" x="26.1" y="17.2" width="10.8" height="12.7"/>
          </g>
        </g>
        <g class="st6">
          <g class="st32">
            <rect class="st46" x="19.4" y="17.2" width="12.1" height="12.7"/>
          </g>
        </g>
        <g class="st1">
          <g class="st2">
            <rect class="st46" x="16.7" y="17.2" width="7.9" height="12.7"/>
          </g>
        </g>
        <g class="st34">
          <g class="st19">
            <rect class="st46" x="11.2" y="17.2" width="10.9" height="12.7"/>
          </g>
        </g>
      </g>
    </g>
    <g id="_x30_4페이스북" class="st10">
      <path class="st12" d="M24,0h0C37.3,0,48,10.7,48,24h0c0,13.3-10.7,24-24,24h0C10.7,48,0,37.2,0,24h0C0,10.7,10.7,0,24,0Z"/>
      <path id="Initiator" class="st7" d="M48,24C48,10.8,37.2,0,24,0S0,10.8,0,24s7.8,20.7,18.2,23.3v-16h-4.9v-7.3h4.9v-3.2c0-8.2,3.7-12,11.7-12s4.1.3,5.2.6v6.7c-.6,0-1.5,0-2.8,0-3.9,0-5.5,1.5-5.5,5.4v2.6h7.8l-1.3,7.3h-6.5v16.5c11.9-1.4,21.1-11.5,21.1-23.8Z"/>
      <path id="F" class="st8" d="M33.4,31.4l1.3-7.3h-7.8v-2.6c0-3.9,1.5-5.4,5.5-5.4s2.2,0,2.8,0v-6.6c-1.1-.3-3.7-.6-5.2-.6-8,0-11.7,3.8-11.7,12v3.2h-4.9v7.3h4.9v16c1.9.5,3.8.7,5.8.7s2,0,2.9-.2v-16.5s6.5,0,6.5,0Z"/>
      <g id="Logo">
        <path id="Initiator1" class="st21" d="M37.2,24c0-7.3-5.9-13.2-13.2-13.2s-13.2,5.9-13.2,13.2,4.3,11.4,10,12.9v-8.8h-2.7v-4h2.7v-1.7c0-4.5,2-6.6,6.5-6.6s2.3.2,2.9.3v3.7c-.3,0-.9,0-1.5,0-2.2,0-3,.8-3,3v1.4h4.3l-.7,4h-3.6v9.1c6.6-.8,11.6-6.4,11.6-13.1h0Z"/>
        <path id="F1" class="st14" d="M29.2,28l.7-4h-4.3v-1.4c0-2.1.8-3,3-3s1.2,0,1.5,0v-3.7c-.6-.2-2-.3-2.9-.3-4.4,0-6.5,2.1-6.5,6.6v1.7h-2.7v4h2.7v8.8c1,.2,2.1.4,3.2.4s1.1,0,1.6,0v-9.1h3.6Z"/>
      </g>
    </g>
    <g id="_x30_5엑스" class="st10">
      <circle cx="24" cy="24" r="24"/>
      <path id="_x30_5엑스1" class="st21" d="M26,22.4l7.7-8.9h-1.8l-6.6,7.7-5.3-7.7h-6.1l8,11.7-8,9.3h1.8l7-8.1,5.6,8.1h6.1l-8.3-12.1h0ZM23.5,25.3l-.8-1.2-6.5-9.2h2.8l5.2,7.5.8,1.2,6.8,9.7h-2.8l-5.5-7.9h0Z"/>
    </g>
    <g id="_x30_6구글" class="st10">
      <path class="st30" d="M24,0h0C37.2,0,48,10.7,48,24h0c0,13.2-10.8,24-24,24h0C10.8,48,0,37.2,0,24h0C0,10.7,10.8,0,24,0Z"/>
      <g id="_x30_6구글1">
        <g class="st20">
          <g>
            <path class="st23" d="M35.5,24.3c0-.9,0-1.7-.2-2.5h-11.3v4.6h6.5c-.3,1.5-1.1,2.8-2.4,3.6v3h3.9c2.3-2.1,3.6-5.2,3.6-8.8h0Z"/>
            <path class="st28" d="M24,36c3.2,0,6-1.1,7.9-2.9l-3.9-3c-1.1.7-2.5,1.1-4.1,1.1-3.1,0-5.8-2.1-6.7-5h-4v3.1c2,3.9,6,6.6,10.7,6.6Z"/>
            <path class="st22" d="M17.3,26.3c-.2-.7-.4-1.5-.4-2.3s.1-1.6.4-2.3v-3.1h-4c-.8,1.6-1.3,3.5-1.3,5.4s.5,3.8,1.3,5.4c0,0,4-3.1,4-3.1Z"/>
            <path class="st49" d="M24,16.8c1.8,0,3.3.6,4.6,1.8l3.4-3.4c-2.1-1.9-4.8-3.1-8-3.1-4.7,0-8.8,2.7-10.7,6.6l4,3.1c.9-2.8,3.6-4.9,6.7-4.9h0Z"/>
          </g>
        </g>
      </g>
    </g>
  </g>
  <g id="sns_x28_수정전_x29_" class="st10">
    <g id="_x30_1카카오1">
      <rect class="st11" y="0" width="48" height="48" rx="3" ry="3"/>
      <circle class="st41" cx="24" cy="24" r="24"/>
      <path class="st31" d="M24,12c-7.8,0-14.1,5-14.1,11.2s2.7,7.5,6.7,9.5c-.3,1.1-1.1,4-1.2,4.6-.2.8.3.8.6.5.2-.2,3.9-2.6,5.5-3.7.9.1,1.7.2,2.6.2,7.8,0,14.1-5,14.1-11.2s-6.3-11.2-14.1-11.2"/>
    </g>
    <g id="_x30_2네이버1">
      <path class="st42" d="M24,0h0C37.3,0,48,10.7,48,24h0c0,13.3-10.7,24-24,24h0C10.7,48,0,37.3,0,24h0C0,10.7,10.7,0,24,0Z"/>
      <polygon class="st21" points="28 24.8 19.7 13 12.9 13 12.9 35 20 35 20 23.2 28.3 35 35.1 35 35.1 13 28 13 28 24.8"/>
    </g>
    <g id="_x30_3라인1">
      <path class="st42" d="M24,0h0C37.3,0,48,10.7,48,24h0c0,13.3-10.7,24-24,24h0C10.7,48,0,37.3,0,24h0C0,10.7,10.7,0,24,0Z"/>
      <g>
        <g class="st24">
          <g class="st37">
            <rect class="st21" x="7.2" y="9" width="33.7" height="31.9"/>
          </g>
        </g>
        <g class="st48">
          <g class="st38">
            <rect class="st46" x="26" y="17.5" width="10.5" height="12.2"/>
          </g>
        </g>
        <g class="st4">
          <g class="st45">
            <rect class="st46" x="19.6" y="17.5" width="11.6" height="12.2"/>
          </g>
        </g>
        <g class="st3">
          <g class="st5">
            <rect class="st46" x="17" y="17.5" width="7.6" height="12.2"/>
          </g>
        </g>
        <g class="st39">
          <g class="st33">
            <rect class="st46" x="11.7" y="17.5" width="10.4" height="12.2"/>
          </g>
        </g>
      </g>
    </g>
    <g id="_x30_4페이스북1">
      <path id="Initiator2" class="st12" d="M48,24C48,10.7,37.2,0,24,0S0,10.7,0,24s7.8,20.7,18.2,23.3v-16h-4.9v-7.3h4.9v-3.2c0-8.2,3.7-12,11.7-12s4.1.3,5.2.6v6.7c-.6,0-1.5,0-2.8,0-3.9,0-5.5,1.5-5.5,5.4v2.6h7.8l-1.3,7.3h-6.5v16.5c11.9-1.4,21.1-11.5,21.1-23.8Z"/>
      <path id="F2" class="st21" d="M33.4,31.3l1.3-7.3h-7.8v-2.6c0-3.9,1.5-5.4,5.5-5.4s2.2,0,2.8,0v-6.6c-1.1-.3-3.7-.6-5.2-.6-8,0-11.7,3.8-11.7,12v3.2h-4.9v7.3h4.9v16c1.9.5,3.8.7,5.8.7s2,0,2.9-.2v-16.5h6.5Z"/>
    </g>
    <g id="_x30_5엑스2">
      <circle cx="24" cy="24" r="24"/>
      <path id="_x30_5엑스3" class="st21" d="M26,22.3l8-9.3h-1.9l-7,8.1-5.6-8.1h-6.4l8.4,12.2-8.4,9.8h1.9l7.4-8.5,5.9,8.5h6.4l-8.7-12.7h0ZM23.5,25.3l-.9-1.2-6.8-9.7h2.9l5.5,7.8.9,1.2,7.1,10.2h-2.9l-5.8-8.3h0Z"/>
    </g>
    <g id="_x30_6구글2">
      <path class="st30" d="M24,0h0C37.2,0,48,10.7,48,24h0c0,13.2-10.8,24-24,24h0C10.8,48,0,37.2,0,24h0C0,10.7,10.8,0,24,0Z"/>
      <g id="_x30_6구글3">
        <g class="st0">
          <g>
            <path class="st23" d="M35.5,24.3c0-.9,0-1.7-.2-2.5h-11.3v4.6h6.5c-.3,1.5-1.1,2.8-2.4,3.6v3h3.9c2.3-2.1,3.6-5.2,3.6-8.8h0Z"/>
            <path class="st28" d="M24,36c3.2,0,6-1.1,7.9-2.9l-3.9-3c-1.1.7-2.5,1.1-4.1,1.1-3.1,0-5.8-2.1-6.7-5h-4v3.1c2,3.9,6,6.6,10.7,6.6Z"/>
            <path class="st22" d="M17.3,26.3c-.2-.7-.4-1.5-.4-2.3s.1-1.6.4-2.3v-3.1h-4c-.8,1.6-1.3,3.5-1.3,5.4s.5,3.8,1.3,5.4c0,0,4-3.1,4-3.1Z"/>
            <path class="st49" d="M24,16.8c1.8,0,3.3.6,4.6,1.8l3.4-3.4c-2.1-1.9-4.8-3.1-8-3.1-4.7,0-8.8,2.7-10.7,6.6l4,3.1c.9-2.8,3.6-4.9,6.7-4.9h0Z"/>
          </g>
        </g>
      </g>
    </g>
    <rect class="st27" x="13.2" y="19.1" width="21.9" height="9.6"/>
    <rect class="st27" x="58" y="9.4" width="5.5" height="22"/>
    <rect class="st27" x="-150.6" y="169.7" width="21" height="21"/>
  </g>
  <g id="ConTents" class="st10">
    <g id="_사용자_댓글_차단">
      <g>
        <rect class="st21" x="8.9" y="20.5" width="30.2" height="22" rx="1.3" ry="1.3"/>
        <path class="st44" d="M37.6,22v19H10.4v-19h27.2M37.8,19H10.2c-1.6,0-2.8,1.3-2.8,2.8v19.4c0,1.5,1.3,2.8,2.8,2.8h27.6c1.5,0,2.8-1.3,2.8-2.8v-19.4c0-1.5-1.3-2.8-2.8-2.8h0Z"/>
      </g>
      <path class="st44" d="M27.4,30.1c0,1.1-.5,2.1-1.4,2.7l1.4,3.6h-6.8l1.4-3.6c-.8-.6-1.4-1.6-1.4-2.7v-.2c0-1.8,1.5-3.3,3.3-3.3h.2c1.8,0,3.3,1.5,3.3,3.3v.2h0Z"/>
      <path class="st44" d="M24,7.8c4.3,0,7.7,3.5,7.7,7.7v3.5h-15.4v-3.5c0-4.3,3.5-7.7,7.7-7.7M24,4.8c-5.9,0-10.7,4.8-10.7,10.7v6.5h21.4v-6.5c0-5.9-4.8-10.7-10.7-10.7h0Z"/>
    </g>
  </g>
  <g id="_레이어_4" class="st10">
    <g id="_좋아요">
      <g id="_레이어_87" class="st10">
        <path class="st43" d="M-35.8,40.5l-2.3-2h0c-9.6-8.7-15.9-14.4-15.9-21.3s4.2-9.7,9.7-9.7,6,1.4,8,3.7l.5.6.5-.6c2-2.3,5-3.7,8-3.7,5.4,0,9.7,4.2,9.7,9.7s-6.3,12.5-15.9,21.2h0c0,0-2.2,2.1-2.2,2.1h0Z"/>
        <path class="st44" d="M-35.8,42c-.4,0-.7-.1-1-.4l-2.3-2c-9.9-9-16.4-14.9-16.4-22.4s4.9-11.2,11.2-11.2,6.3,1.3,8.5,3.6c2.2-2.3,5.4-3.6,8.5-3.6,6.3,0,11.2,4.9,11.2,11.2s-6.5,13.4-16.3,22.3l-2.3,2.1c-.3.3-.7.4-1,.4h0ZM-44.3,9c-4.6,0-8.2,3.6-8.2,8.2s6.1,11.7,15.4,20.1l1.3,1.2,1.3-1.2c9.2-8.4,15.4-14,15.4-20.1s-3.6-8.2-8.2-8.2-5.1,1.2-6.8,3.2l-.5.6c-.6.7-1.7.7-2.3,0l-.5-.6c-1.7-2-4.2-3.2-6.8-3.2h0Z"/>
      </g>
      <path class="st21" d="M-35.8,40.5l-2.3-2h0c-9.6-8.7-15.9-14.4-15.9-21.3s4.2-9.7,9.7-9.7,6,1.4,8,3.7l.5.6.5-.6c2-2.3,5-3.7,8-3.7,5.4,0,9.7,4.2,9.7,9.7s-6.3,12.5-15.9,21.2h0c0,0-2.2,2.1-2.2,2.1h0Z"/>
      <path class="st44" d="M-35.8,42c-.4,0-.7-.1-1-.4l-2.3-2c-9.9-9-16.4-14.9-16.4-22.4s4.9-11.2,11.2-11.2,6.3,1.3,8.5,3.6c2.2-2.3,5.4-3.6,8.5-3.6,6.3,0,11.2,4.9,11.2,11.2s-6.5,13.4-16.3,22.3l-2.3,2.1c-.3.3-.7.4-1,.4h0ZM-44.3,9c-4.6,0-8.2,3.6-8.2,8.2s6.1,11.7,15.4,20.1l1.3,1.2,1.3-1.2c9.2-8.4,15.4-14,15.4-20.1s-3.6-8.2-8.2-8.2-5.1,1.2-6.8,3.2l-.5.6c-.6.7-1.7.7-2.3,0l-.5-.6c-1.7-2-4.2-3.2-6.8-3.2h0Z"/>
    </g>
  </g>
  <g id="_레이어_5">
    <path class="st36" d="M24,37.3c-10.8,0-19.2-12-19.6-12.5-.4-.5-.4-1.2,0-1.7.3-.5,8.8-12.5,19.6-12.5s19.2,11.9,19.6,12.5c.4.5.4,1.2,0,1.7-.3.5-8.8,12.5-19.6,12.5ZM7.5,24c2.1,2.6,8.8,10.3,16.5,10.3s14.4-7.7,16.5-10.3c-2.1-2.6-8.8-10.3-16.5-10.3s-14.4,7.7-16.5,10.3Z"/>
    <path class="st36" d="M24,32.7c-4.8,0-8.7-3.9-8.7-8.7s3.9-8.7,8.7-8.7,8.7,3.9,8.7,8.7-3.9,8.7-8.7,8.7ZM24,17.7c-3.5,0-6.3,2.9-6.3,6.3s2.9,6.3,6.3,6.3,6.3-2.9,6.3-6.3-2.9-6.3-6.3-6.3Z"/>
    <circle class="st9" cx="24" cy="23.7" r="5"/>
    <circle class="st9" cx="27" cy="21.1" r="3"/>
  </g>
  <g id="link" class="st10">
    <path class="st16" d="M26.1,19.6c.4.3.8.6,1.1.9l.4.4c3.2,3.2,3.2,8.4,0,11.7l-7.4,7.4c-3.2,3.2-8.4,3.2-11.7,0l-.4-.3c-3.2-3.2-3.2-8.5,0-11.7l5.5-5.5"/>
    <path class="st16" d="M23.4,28.9c-.8-.4-1.6-.9-2.3-1.6l-.4-.4c-3.2-3.2-3.2-8.5,0-11.7l7.4-7.4c3.2-3.2,8.4-3.2,11.7,0l.3.4c3.2,3.2,3.2,8.4,0,11.7l-5.4,5.4"/>
  </g>
  <g id="_레이어_8" class="st10">
    <image class="st40" width="512" height="512" transform="translate(4.1 4) scale(0)" xlink:href="icon_eyes05-1.png"/>
    <path class="st17" d="M40,14.6v19.9c0,1.7-1.3,3-3,3h-20c-1.7,0-3-1.3-3-3V8.5c0-1.7,1.3-3,3-3h14.9l8.1,9.1Z"/>
    <path class="st17" d="M34.3,37.5v1.8c0,1.7-1.3,3-3,3H11.3c-1.7,0-3-1.3-3-3V13.3c0-1.7,1.3-3,3-3h2.7"/>
    <line class="st13" x1="21.3" y1="20.4" x2="33.3" y2="20.4"/>
    <line class="st13" x1="21.3" y1="25.2" x2="33.3" y2="25.2"/>
    <line class="st13" x1="21.3" y1="30.1" x2="33.3" y2="30.1"/>
    <path class="st15" d="M32.2,5.4v6.2c0,1.7,1.3,3,3,3h5l-8-9.2"/>
  </g>
</svg>